<?xml version="1.0" encoding="utf-8"?>
<svg version="1.1" id="Layer_1" x="0" y="0" width="70" height="70" xmlns="http://www.w3.org/2000/svg">
  <path fill="none" d="M0 70h70V0H0z"/>
  <path fill="#FFBC67" d="M6.604 11.887V9.906c0-1.094.892-1.981 1.979-1.981h14.533c1.093 0 1.979.879 1.979 1.981v1.981h36.621a2.994 2.994 0 0 1 3.002 2.998v40.231a3.004 3.004 0 0 1-3.002 2.998H9.606a2.995 2.995 0 0 1-3.002-2.998V11.887z"/>
  <path fill="#FFEBD1" d="M7.924 13.208v-2.962c0-.552.458-1 .992-1h13.866a1 1 0 0 1 .991 1v2.962h37.615c1.109 0 2.008.891 2.008 2v39.584a2.003 2.003 0 0 1-2.008 2.001H9.932a2.001 2.001 0 0 1-2.007-2.001V13.208z"/>
  <path fill="#CC9652" d="m11.887 27.075 5.783-5.943h41.764v23.774H11.887z"/>
  <path fill="#FFFAF5" d="m13.208 27.736 5.283-5.283h39.622v22.453H13.208z"/>
  <path fill="#CC9652" d="M19.813 29.056v-7.925l-7.924 7.925z"/>
  <path fill="#FFFAF5" d="M18.492 27.735v-5.283l-5.283 5.283z"/>
  <path fill="#CC9652" d="M 64.717 19.523 L 64.717 53.947 C 64.712 56.249 63.37 58.112 61.715 58.113 L 9.606 58.113 C 7.95 58.118 6.605 56.252 6.604 53.947 L 6.604 23.69 C 6.603 21.39 7.943 19.524 9.596 19.523 L 25.095 19.523 L 29.057 14.011 L 62.737 14.011 C 63.831 14.011 64.717 15.234 64.717 16.767 L 64.717 19.523 L 64.717 19.523 Z" style=""/>
  <path fill="#FFBC67" d="M 26.071 21.506 L 29.559 16.517 L 62.231 16.517 C 62.788 16.517 63.239 16.972 63.239 17.517 L 63.397 54.802 C 63.397 55.901 62.502 56.792 61.389 56.792 L 9.932 56.792 C 8.829 56.796 7.931 55.905 7.925 54.802 L 7.056 23.733 C 7.056 22.634 7.95 21.743 9.063 21.743 L 26.15 21.506 L 26.071 21.506 Z M 9.245 11.227 C 9.245 10.862 9.546 10.566 9.9 10.566 L 21.797 10.566 C 22.159 10.566 22.452 10.859 22.452 11.227 L 22.452 11.887 L 9.245 11.887 L 9.245 11.227 Z"/>
</svg>