<svg viewBox="0 0 64 64" xml:space="preserve" xmlns="http://www.w3.org/2000/svg" enable-background="new 0 0 64 64"><path d="m52.697 6-2.654 1.769C46.742 3.649 41.678 1 36 1c-6.227 0-11.723 3.18-14.956 8H1v54h44V34.565c5.371-3.118 9-8.919 9-15.565 0-3.53-1.036-6.816-2.799-9.599L53.303 8H63V6H52.697zM35 3.051v15.655l-8.463 13.166C22.581 28.956 20 24.279 20 19c0-8.485 6.644-15.429 15-15.949zM36 37c1.024 0 2.022-.106 3-.271V39H7V15h11.464A17.949 17.949 0 0 0 18 19c0 9.925 8.075 18 18 18zm7 24H3V11h16.899A17.726 17.726 0 0 0 19 13.137V13H5v28h36v-4.721a17.964 17.964 0 0 0 2-.696V61zm-7-26a15.89 15.89 0 0 1-7.788-2.036l8.193-12.744 14.183 5.319C48.082 31.107 42.492 35 36 35zm16-16a15.95 15.95 0 0 1-.699 4.67L37 18.307V3.051a15.97 15.97 0 0 1 11.379 5.828l-7.934 5.289 1.109 1.664 7.983-5.322A15.885 15.885 0 0 1 52 19z" fill="#d49548" class="fill-3f3a34"></path><path d="M61 10h2v2h-2zM54 10h5v2h-5zM5 43h36v2H5zM9 47h32v2H9zM5 47h2v2H5zM5 51h36v2H5zM39 55h2v2h-2zM5 55h32v2H5zM51 41h8v-8h-8v8zm2-6h4v4h-4v-4zM55 53c-2.757 0-5 2.243-5 5s2.243 5 5 5 5-2.243 5-5-2.243-5-5-5zm0 8c-1.654 0-3-1.346-3-3s1.346-3 3-3 3 1.346 3 3-1.346 3-3 3zM59.766 51 55 43.056 50.234 51h9.532zm-3.532-2h-2.468L55 46.944 56.234 49z" fill="#d49548" class="fill-3f3a34"></path></svg>