<svg viewBox="0 0 60 60" xmlns="http://www.w3.org/2000/svg"><g data-name="Layer 2"><path d="M0 0h60v60H0z" fill="none"></path><path d="M46.27 32.49h-.05l1.92-21.88A2.34 2.34 0 0 0 46 8.08l-27.45-2.4A2.35 2.35 0 0 0 16 7.8l-.25 2.91h-2.2A2.33 2.33 0 0 0 11.22 13v37.43a2.33 2.33 0 0 0 2.33 2.33h4a2.53 2.53 0 0 0 2.33 1.57h26.39a2.52 2.52 0 0 0 2.51-2.51V35a2.52 2.52 0 0 0-2.51-2.51ZM18 8a.33.33 0 0 1 .36-.3l27.46 2.4a.33.33 0 0 1 .3.36l-1.91 22.03h-.76V13a2.33 2.33 0 0 0-2.33-2.33H17.78Zm-.68 31.57v11.19h-3.77a.33.33 0 0 1-.33-.33V13a.33.33 0 0 1 .33-.33h27.57a.33.33 0 0 1 .33.33v19.49h-4.71a4 4 0 0 0-2.5.88l-4.05 3.22a2 2 0 0 1-1.26.44h-9.08a2.51 2.51 0 0 0-2.51 2.51Zm29.46 12.25a.51.51 0 0 1-.51.51H19.85a.51.51 0 0 1-.51-.51V39.54a.51.51 0 0 1 .51-.51h9.08a4 4 0 0 0 2.51-.88l4-3.22a2.07 2.07 0 0 1 1.26-.44h9.53a.51.51 0 0 1 .51.51Z" fill="#eb8d21" class="fill-3d3d63"></path><path d="M43.64 48.27h-3.77a1 1 0 0 0 0 2h3.77a1 1 0 0 0 0-2ZM24.7 18.12H30a1 1 0 0 0 0-2h-5.3a1 1 0 0 0 0 2ZM19 23.79h16.64a1 1 0 0 0 0-2H19a1 1 0 0 0 0 2ZM36.64 27.83a1 1 0 0 0-1-1H19a1 1 0 0 0 0 2h16.64a1 1 0 0 0 1-1Z" fill="#eb8d21" class="fill-3d3d63"></path></g></svg>