<svg width="566" height="566" fill="none" xmlns="http://www.w3.org/2000/svg"><path d="M0 0h566v566H0z"/><rect x="501.925" y="74.755" width="427.17" height="427.17" rx="20" transform="rotate(90 501.925 74.755)" fill="#4896B9"/><rect x="491.245" y="106.792" width="384.453" height="405.811" rx="2" transform="rotate(90 491.245 106.792)" fill="#67D0FF"/><rect x="491.245" y="106.792" width="384.453" height="405.811" rx="2" transform="rotate(90 491.245 106.792)" fill="#ECECEC"/><path d="M480.566 202.906H96.113v275.66a2 2 0 0 0 2 2h380.453a2 2 0 0 0 2-2v-275.66z" fill="#fff"/><path d="M85.434 93.434a8 8 0 0 1 8-8h389.811a8 8 0 0 1 8 8v122.83a8 8 0 0 1-8 8H93.434a8 8 0 0 1-8-8V93.434z" fill="#67D0FF"/><path d="M253.142 427.17h-27.125V322.609l-32.382 10.043v-22.057l56.598-20.274h2.909V427.17zm133.564-100.337c0 6.633-1.658 12.515-4.975 17.646-3.316 5.131-7.884 9.229-13.703 12.295 6.632 3.192 11.889 7.603 15.768 13.235 3.88 5.569 5.82 12.139 5.82 19.71 0 12.14-4.13 21.745-12.39 28.816-8.26 7.008-19.492 10.512-33.696 10.512-14.204 0-25.467-3.535-33.79-10.606-8.322-7.071-12.483-16.645-12.483-28.722 0-7.571 1.94-14.173 5.819-19.804 3.88-5.632 9.105-10.012 15.675-13.141-5.819-3.066-10.387-7.164-13.704-12.295-3.254-5.131-4.881-11.013-4.881-17.646 0-11.639 3.88-20.9 11.639-27.783 7.759-6.946 18.303-10.418 31.631-10.418 13.266 0 23.778 3.441 31.537 10.324 7.822 6.821 11.733 16.113 11.733 27.877zm-24.31 60.915c0-5.944-1.721-10.7-5.162-14.266-3.442-3.567-8.072-5.351-13.892-5.351-5.756 0-10.356 1.784-13.797 5.351-3.442 3.504-5.162 8.259-5.162 14.266 0 5.82 1.689 10.513 5.068 14.079 3.379 3.567 8.072 5.35 14.079 5.35 5.882 0 10.481-1.72 13.798-5.162 3.379-3.441 5.068-8.197 5.068-14.267zm-2.816-59.601c0-5.319-1.408-9.574-4.224-12.765-2.815-3.254-6.789-4.881-11.92-4.881-5.068 0-9.01 1.564-11.826 4.693-2.816 3.129-4.224 7.446-4.224 12.953 0 5.444 1.408 9.824 4.224 13.14 2.816 3.317 6.789 4.975 11.92 4.975s9.073-1.658 11.826-4.975c2.816-3.316 4.224-7.696 4.224-13.14z" fill="#2C2C2C"/><path d="M185.677 157.748c0-6.716 1.293-12.702 3.879-17.958 2.587-5.257 6.299-9.324 11.138-12.202 4.881-2.879 10.534-4.318 16.958-4.318 9.136 0 16.582 2.795 22.339 8.385 5.798 5.59 9.031 13.182 9.699 22.777l.125 4.63c0 10.388-2.899 18.731-8.698 25.03-5.798 6.257-13.578 9.386-23.34 9.386-9.761 0-17.562-3.129-23.402-9.386-5.799-6.258-8.698-14.768-8.698-25.53v-.814zm18.084 1.314c0 6.425 1.209 11.347 3.629 14.768 2.419 3.379 5.882 5.068 10.387 5.068 4.38 0 7.801-1.668 10.262-5.006 2.461-3.379 3.692-8.76 3.692-16.144 0-6.299-1.231-11.18-3.692-14.642-2.461-3.462-5.923-5.194-10.387-5.194-4.422 0-7.843 1.732-10.262 5.194-2.42 3.421-3.629 8.739-3.629 15.956zm83.723 8.197h-7.258v24.967h-18.084v-67.704h18.084v25.467h6.445l14.767-25.467h22.84l-22.152 32.225 24.216 35.479h-24.09l-14.768-24.967zm101.87-28.22h-21.713v53.187h-18.146v-53.187h-21.338v-14.517h61.197v14.517z" fill="#fff"/><path fill="#2296CA" d="M74.755 213.585h427.17v10.679H74.755z"/><path d="M117.472 69.415c0-8.847 7.172-16.019 16.019-16.019 8.847 0 16.018 7.172 16.018 16.02v21.358c0 8.847-7.171 16.018-16.018 16.018-8.847 0-16.019-7.171-16.019-16.018V69.415z" fill="#fff"/><path fill-rule="evenodd" clip-rule="evenodd" d="M138.83 90.774V69.415a5.34 5.34 0 1 0-10.679 0v21.359a5.34 5.34 0 0 0 10.679 0zm-5.339-37.378c-8.847 0-16.019 7.172-16.019 16.02v21.358c0 8.847 7.172 16.018 16.019 16.018 8.847 0 16.018-7.171 16.018-16.018V69.415c0-8.847-7.171-16.019-16.018-16.019z" fill="#4896B9"/><path d="M427.17 69.415c0-8.847 7.172-16.019 16.019-16.019 8.847 0 16.019 7.172 16.019 16.02v21.358c0 8.847-7.172 16.018-16.019 16.018-8.847 0-16.019-7.171-16.019-16.018V69.415z" fill="#fff"/><path fill-rule="evenodd" clip-rule="evenodd" d="M448.528 90.774V69.415a5.34 5.34 0 1 0-10.679 0v21.359a5.34 5.34 0 0 0 10.679 0zm-5.339-37.378c-8.847 0-16.019 7.172-16.019 16.02v21.358c0 8.847 7.172 16.018 16.019 16.018 8.847 0 16.019-7.171 16.019-16.018V69.415c0-8.847-7.172-16.019-16.019-16.019z" fill="#4896B9"/></svg>