<svg version="1.1" id="Layer_1" xmlns="http://www.w3.org/2000/svg" x="0" y="0" width="70" height="70" xml:space="preserve"><path fill="none" d="M0 0h70v70H0z"/><path fill="none" d="M5 4h60v60H5z"/><path fill="#08BF32" stroke="#057920" d="M21.55 30.975c3.6 7.075 9.4 12.85 16.476 16.475l5.5-5.5a2.488 2.488 0 0 1 2.55-.601 28.49 28.49 0 0 0 8.925 1.426c1.375 0 2.5 1.125 2.5 2.5V54c0 1.375-1.125 2.5-2.5 2.5-23.475 0-42.5-19.025-42.5-42.5 0-1.375 1.125-2.5 2.5-2.5h8.75c1.375 0 2.5 1.125 2.5 2.5 0 3.125.5 6.125 1.425 8.925.275.875.075 1.85-.625 2.55l-5.501 5.5z"/></svg>