<?xml version="1.0" encoding="utf-8"?>
<svg height="800px" width="800px" version="1.1" id="Capa_1" viewBox="0 0 512 512" xmlns="http://www.w3.org/2000/svg" xmlns:bx="https://boxy-svg.com">
  <defs>
    <filter id="drop-shadow-filter-0" color-interpolation-filters="sRGB" x="-50%" y="-50%" width="200%" height="200%" bx:preset="drop-shadow 1 10 10 0 0.5 rgba(0,0,0,0.3)">
      <feGaussianBlur in="SourceAlpha" stdDeviation="0"/>
      <feOffset dx="10" dy="10"/>
      <feComponentTransfer result="offsetblur">
        <feFuncA id="spread-ctrl" type="linear" slope="1"/>
      </feComponentTransfer>
      <feFlood flood-color="rgba(0,0,0,0.3)"/>
      <feComposite in2="offsetblur" operator="in"/>
      <feMerge>
        <feMergeNode/>
        <feMergeNode in="SourceGraphic"/>
      </feMerge>
    </filter>
  </defs>
  <path d="M 437.774 247.195 L 483.944 247.195 L 483.944 466.03 L 437.774 466.03 L 437.774 247.195 Z M 368.513 313.796 L 414.683 313.796 L 414.683 466.03 L 368.513 466.03 L 368.513 313.796 Z M 299.238 266.219 L 345.421 266.219 L 345.421 466.03 L 299.238 466.03 L 299.238 266.219 Z M 229.979 323.308 L 276.16 323.308 L 276.16 466.03 L 229.979 466.03 L 229.979 323.308 Z M 160.718 351.852 L 206.899 351.852 L 206.899 466.03 L 160.718 466.03 L 160.718 351.852 Z M 91.456 332.829 L 137.626 332.829 L 137.626 466.03 L 91.456 466.03 L 91.456 332.829 Z M 22.195 370.885 L 68.365 370.885 L 68.365 466.03 L 22.195 466.03 L 22.195 370.885 Z" style="filter: url('#drop-shadow-filter-0'); fill: rgb(76, 142, 175);"/>
  <g fill="#388e3c" transform="matrix(38.479141, 0, 0, 31.715, -16.283411, 72.74727)" style="filter: url('#drop-shadow-filter-0');">
    <path d="M8.8 4.24l1.2 1.2 2.67-2.67-.84-.84L10 3.76l-1.2-1.2-3 3-1.5-1.5-3.12 3.12.84.84L4.3 5.74l1.5 1.5z" style="fill: rgb(76, 142, 175);"/>
    <path d="M13 1.6h-2.7L13 4.3z" style="fill: rgb(76, 142, 175);"/>
  </g>
</svg>