<?xml version="1.0" encoding="utf-8"?>
<svg height="800px" width="800px" version="1.1" id="Capa_1" viewBox="0 0 512 512" xmlns="http://www.w3.org/2000/svg">
  <path id="chart--multi-line_1_" d="M 475.624 483.64 L 21.204 483.64 C 18.19 483.64 15.75 481.724 15.75 479.356 L 15.75 122.251 L 26.657 122.251 L 26.657 201.291 L 81.793 201.291 L 81.793 209.861 L 26.657 209.861 L 26.657 397.59 L 244.566 226.36 C 246.703 224.681 250.141 224.681 252.276 226.36 L 354.446 306.648 L 471.761 214.455 L 479.486 220.515 L 358.308 315.743 C 356.172 317.42 352.718 317.42 350.582 315.743 L 248.414 235.442 L 26.657 409.708 L 26.657 475.058 L 475.624 475.058 L 475.624 483.64 Z M 142.382 209.861 L 127.235 209.861 L 127.235 201.291 L 140.125 201.291 L 168.83 178.734 L 176.54 184.793 L 146.245 208.599 C 145.215 209.408 143.836 209.861 142.382 209.861 Z M 206.819 160.986 L 199.109 154.927 L 214.257 143.023 C 215.287 142.225 216.665 141.773 218.119 141.773 L 263.562 141.773 L 263.562 150.344 L 220.376 150.344 L 206.819 160.986 Z M 475.624 150.344 L 415.035 150.344 L 415.035 141.773 L 475.624 141.773 L 475.624 150.344 Z M 369.592 150.344 L 309.003 150.344 L 309.003 141.773 L 369.592 141.773 L 369.592 150.344 Z M 134.809 288.9 C 134.809 285.615 131.416 282.948 127.235 282.948 C 123.055 282.948 119.662 285.615 119.662 288.9 C 119.662 292.186 123.055 294.851 127.235 294.851 C 131.416 294.851 134.809 292.186 134.809 288.9 M 74.22 288.9 C 74.22 285.615 70.827 282.948 66.646 282.948 C 62.466 282.948 59.073 285.615 59.073 288.9 C 59.073 292.186 62.466 294.851 66.646 294.851 C 70.827 294.851 74.22 292.186 74.22 288.9 M 180.251 324.611 C 180.251 321.325 176.858 318.659 172.677 318.659 C 168.496 318.659 165.103 321.325 165.103 324.611 C 165.103 327.895 168.496 330.562 172.677 330.562 C 176.858 330.562 180.251 327.895 180.251 324.611 M 225.693 360.321 C 225.693 357.036 222.3 354.369 218.119 354.369 C 213.939 354.369 210.546 357.036 210.546 360.321 C 210.546 363.606 213.939 366.272 218.119 366.272 C 222.3 366.272 225.693 363.606 225.693 360.321 M 271.135 396.032 C 271.135 392.746 267.742 390.08 263.562 390.08 C 259.38 390.08 255.987 392.746 255.987 396.032 C 255.987 399.316 259.38 401.983 263.562 401.983 C 267.742 401.983 271.135 399.316 271.135 396.032 M 316.577 431.741 C 316.577 428.457 313.184 425.79 309.003 425.79 C 304.823 425.79 301.43 428.457 301.43 431.741 C 301.43 435.027 304.823 437.693 309.003 437.693 C 313.184 437.693 316.577 435.027 316.577 431.741 M 362.019 396.032 C 362.019 392.746 358.626 390.08 354.446 390.08 C 350.264 390.08 346.871 392.746 346.871 396.032 C 346.871 399.316 350.264 401.983 354.446 401.983 C 358.626 401.983 362.019 399.316 362.019 396.032 M 407.46 360.321 C 407.46 357.036 404.067 354.369 399.887 354.369 C 395.707 354.369 392.314 357.036 392.314 360.321 C 392.314 363.606 395.707 366.272 399.887 366.272 C 404.067 366.272 407.46 363.606 407.46 360.321 M 468.05 360.321 C 468.05 357.036 464.657 354.369 460.476 354.369 C 456.296 354.369 452.903 357.036 452.903 360.321 C 452.903 363.606 456.296 366.272 460.476 366.272 C 464.657 366.272 468.05 363.606 468.05 360.321" style="fill: rgb(76, 161, 183);"/>
  <rect id="_Transparent_Rectangle" style="fill: none;" width="484.714" height="380.911" x="6.057" y="110.348"/>
  <path style="fill-rule: evenodd; fill: rgb(76, 161, 183);" d="M 400.587 227.435 L 482.651 212.218 L 463.086 286.674 L 400.587 227.435 Z"/>
</svg>