<?xml version="1.0" encoding="utf-8"?>
<svg height="800px" width="800px" version="1.1" id="Capa_1" viewBox="0 0 512 512" xmlns="http://www.w3.org/2000/svg">
  <path fill="none" d="M 4.492 505.077 L 510.43 505.077 L 510.43 2.717 L 4.492 2.717 L 4.492 505.077 Z" style=""/>
  <path fill="#3E50B4" d="M 140.719 59.592 L 393.29 59.592 C 410.536 59.592 424.514 73.471 424.514 90.595 L 424.514 436.153 C 424.514 453.277 410.536 467.156 393.29 467.156 L 140.719 467.156 C 123.474 467.156 109.496 453.277 109.496 436.153 L 109.496 90.595 C 109.496 73.471 123.474 59.592 140.719 59.592 Z" style=""/>
  <path fill="#BAC4F8" d="M 139.859 69.065 L 394.151 69.065 C 405.65 69.065 414.966 78.323 414.966 89.733 L 414.966 437.014 C 414.966 448.432 405.65 457.69 394.151 457.69 L 139.859 457.69 C 128.36 457.69 119.044 448.432 119.044 437.014 L 119.044 89.733 C 119.044 78.323 128.368 69.065 139.859 69.065 Z" style=""/>
  <path fill="#3E50B4" d="M 120.771 50.112 L 384.61 50.112 C 396.109 50.112 405.433 59.362 405.433 70.779 L 405.433 427.535 C 405.44 438.953 396.117 448.218 384.61 448.209 L 120.771 448.209 C 109.272 448.209 99.955 438.953 99.955 427.535 L 99.955 70.779 C 99.955 59.369 109.279 50.112 120.771 50.112 Z" style=""/>
  <path fill="#6175E1" d="M 119.903 59.584 L 385.471 59.584 C 391.217 59.592 395.871 64.214 395.871 69.919 L 395.871 428.389 C 395.871 434.094 391.217 438.723 385.471 438.723 L 119.903 438.723 C 114.157 438.723 109.496 434.086 109.496 428.389 L 109.496 69.926 C 109.496 64.214 114.15 59.584 119.903 59.584 Z" style=""/>
  <path fill="#3E50B4" d="M 262.231 249.153 C 283.328 249.153 300.415 232.188 300.415 211.239 C 300.415 190.291 283.328 173.326 262.231 173.326 C 241.14 173.326 224.048 190.291 224.048 211.239 C 224.048 232.188 241.14 249.153 262.231 249.153 Z M 262.231 268.107 C 236.746 268.107 185.864 280.816 185.864 306.021 L 185.864 324.989 L 338.599 324.989 L 338.599 306.021 C 338.606 280.816 287.731 268.107 262.231 268.107 Z" style=""/>
  <circle opacity=".9" fill="#FFF" cx="75.933" cy="86.043" r="3.962" style="" transform="matrix(7.227682, 0, 0, 7.176565, -286.588994, -406.246435)"/>
  <path opacity=".9" fill="#FFF" d="M 195.412 306.028 L 195.412 315.509 L 329.058 315.509 L 329.058 306.028 C 329.058 291.818 290.874 277.594 262.231 277.594 C 233.596 277.594 195.412 291.812 195.412 306.028 Z" style=""/>
  <path fill="#3E50B4" d="M 104.726 135.419 L 123.821 135.419 C 134.843 135.419 141.731 147.268 136.223 156.747 C 133.666 161.147 128.938 163.854 123.821 163.854 L 104.726 163.854 C 93.704 163.854 86.815 152.004 92.33 142.531 C 94.881 138.132 99.608 135.419 104.726 135.419 Z M 104.726 201.767 L 123.821 201.767 C 134.843 201.767 141.731 213.615 136.223 223.096 C 133.666 227.494 128.938 230.2 123.821 230.2 L 104.726 230.2 C 93.704 230.2 86.815 218.351 92.33 208.879 C 94.881 204.48 99.608 201.767 104.726 201.767 Z" style=""/>
  <path opacity=".9" fill="#FFF" d="M 104.726 144.892 L 123.821 144.892 C 126.459 144.892 128.592 147.018 128.592 149.629 L 128.592 149.635 C 128.592 152.255 126.459 154.373 123.821 154.373 L 104.726 154.373 C 102.094 154.373 99.955 152.255 99.955 149.635 L 99.955 149.629 C 99.955 147.018 102.094 144.892 104.726 144.892 Z M 104.726 211.246 L 123.821 211.246 C 126.459 211.246 128.592 213.372 128.592 215.984 L 128.592 215.991 C 128.592 218.611 126.459 220.727 123.821 220.727 L 104.726 220.727 C 102.094 220.727 99.955 218.611 99.955 215.991 L 99.955 215.984 C 99.955 213.372 102.094 211.246 104.726 211.246 Z" style=""/>
  <path fill="#3E50B4" d="M 104.726 268.107 L 123.821 268.107 C 134.843 268.107 141.731 279.955 136.223 289.435 C 133.666 293.836 128.938 296.541 123.821 296.541 L 104.726 296.541 C 93.704 296.541 86.815 284.692 92.33 275.218 C 94.881 270.819 99.608 268.107 104.726 268.107 Z" style=""/>
  <path opacity=".9" fill="#FFF" d="M 104.726 277.602 L 123.821 277.602 C 126.452 277.602 128.592 279.718 128.592 282.33 L 128.592 282.338 C 128.592 284.958 126.459 287.074 123.821 287.074 L 104.726 287.074 C 102.094 287.074 99.955 284.958 99.955 282.338 L 99.955 282.33 C 99.963 279.718 102.094 277.602 104.726 277.602 Z" style=""/>
  <path fill="#3E50B4" d="M 104.726 334.468 L 123.821 334.468 C 134.836 334.468 141.724 346.31 136.216 355.783 C 133.657 360.182 128.938 362.887 123.821 362.887 L 104.726 362.887 C 93.711 362.887 86.822 351.046 92.33 341.573 C 94.889 337.174 99.615 334.468 104.726 334.468 Z" style=""/>
  <path opacity=".9" fill="#FFF" d="M 104.726 343.942 L 123.821 343.942 C 126.459 343.942 128.592 346.066 128.592 348.678 L 128.592 348.685 C 128.592 351.304 126.459 353.422 123.821 353.422 L 104.726 353.422 C 102.094 353.422 99.955 351.304 99.955 348.685 L 99.955 348.678 C 99.955 346.066 102.094 343.942 104.726 343.942 Z" style=""/>
  <path fill="#FF3E3E" d="M 157.228 59.592 L 195.412 59.592 L 195.412 125.938 L 176.323 116.459 L 157.228 125.938 L 157.228 59.592 Z" style=""/>
</svg>