<?xml version="1.0" encoding="utf-8"?>
<svg viewBox="0 0 512 512" enable-background="new 0 0 512 512" xmlns="http://www.w3.org/2000/svg">
  <path d="M-7305.3-3171.7v164.9h463v-164.9h-463zm161.7 102.3c2.7 3.6 6.3 5.3 10.9 5.3 4.5 0 7.9-1.2 10.3-3.5 2.3-2.4 3.5-5.8 3.5-10.2h10.6l.1.3c.1 6.7-2 12-6.5 16.1-4.4 4.1-10.5 6.1-18 6.1-7.7 0-13.9-2.6-18.7-7.8-4.8-5.2-7.2-11.8-7.2-19.9v-12.6c0-8 2.4-14.7 7.1-19.9s10.9-7.8 18.5-7.8c7.8 0 13.9 2 18.4 5.9 4.5 4 6.6 9.4 6.5 16.3l-.1.3h-10.7c0-4.4-1.2-7.8-3.6-10.1-2.4-2.3-5.9-3.5-10.5-3.5-4.5 0-8 1.8-10.6 5.3-2.6 3.6-3.9 8-3.9 13.5v12.7c0 5.4 1.3 9.9 3.9 13.5zm88.2 9.2c-4.3 3.3-9.9 4.9-16.9 4.9-6.7 0-12.6-1.8-17.6-5.4-5-3.6-7.4-8.6-7.3-15.1l.1-.3h10.6c0 4 1.4 6.9 4.1 9 2.7 2 6.1 3 10 3 3.9 0 6.9-.8 9.1-2.5 2.2-1.6 3.2-3.9 3.2-6.7 0-2.8-1-5-2.9-6.8-2-1.8-5.4-3.3-10.4-4.7-7.1-2-12.6-4.5-16.4-7.7-3.9-3.2-5.8-7.4-5.8-12.5 0-5.3 2.1-9.7 6.4-13.2 4.2-3.4 9.7-5.2 16.3-5.2 7.1 0 12.8 1.9 17.1 5.7 4.3 3.8 6.3 8.6 6.2 14.2l-.1.3h-10.6c0-3.5-1.2-6.2-3.5-8.3-2.3-2.1-5.4-3.1-9.2-3.1-3.7 0-6.6.9-8.6 2.6-2 1.8-3 4-3 6.8 0 2.5 1.1 4.6 3.3 6.3 2.2 1.6 5.9 3.2 11 4.7 6.9 1.9 12.2 4.6 15.8 7.9 3.6 3.3 5.4 7.6 5.4 12.8.2 5.7-2 10-6.3 13.3zm59.9 0c-4.3 3.3-9.9 4.9-16.9 4.9-6.7 0-12.6-1.8-17.6-5.4-5-3.6-7.4-8.6-7.3-15.1l.1-.3h10.6c0 4 1.4 6.9 4.1 9 2.7 2 6.1 3 10 3 3.9 0 6.9-.8 9.1-2.5 2.2-1.6 3.2-3.9 3.2-6.7 0-2.8-1-5-2.9-6.8-2-1.8-5.4-3.3-10.4-4.7-7.1-2-12.6-4.5-16.4-7.7-3.9-3.2-5.8-7.4-5.8-12.5 0-5.3 2.1-9.7 6.4-13.2 4.2-3.4 9.7-5.2 16.3-5.2 7.1 0 12.8 1.9 17.1 5.7 4.3 3.8 6.3 8.6 6.2 14.2l-.1.3h-10.6c0-3.5-1.2-6.2-3.5-8.3-2.3-2.1-5.4-3.1-9.2-3.1-3.7 0-6.6.9-8.6 2.6-2 1.8-3 4-3 6.8 0 2.5 1.1 4.6 3.3 6.3 2.2 1.6 5.9 3.2 11 4.7 6.9 1.9 12.2 4.6 15.8 7.9s5.4 7.6 5.4 12.8c.2 5.7-2 10-6.3 13.3zM429.5 114.9h-58.3c-18.7 0-33.8-15.3-33.8-34.1V22" fill="#1b91e0" class="fill-000000"/>
  <path d="M396.8 497H101.5c-21.9 0-39.7-17.8-39.7-39.7V348.5h14v108.8c0 14.2 11.5 25.7 25.7 25.7h295.3c14.2 0 25.7-11.5 25.7-25.7V113.9L341.3 29H101.5c-14.2 0-25.7 11.5-25.7 25.7v112.6h-14V54.7c0-21.9 17.8-39.7 39.7-39.7h245.8l89.2 93.3v349.1c0 21.8-17.8 39.6-39.7 39.6z" fill="#1b91e0" class="fill-000000"/>
  <path d="M482.5 447.8h-279c-13 0-23.5-10.6-23.5-23.5V322.1c0-13 10.6-23.5 23.5-23.5h279c13 0 23.5 10.6 23.5 23.5v102.2c0 12.9-10.6 23.5-23.5 23.5zm-279-135.2c-5.3 0-9.5 4.3-9.5 9.5v102.2c0 5.3 4.3 9.5 9.5 9.5h279c5.3 0 9.5-4.3 9.5-9.5V322.1c0-5.3-4.3-9.5-9.5-9.5h-279z" fill="#1b91e0" class="fill-000000"/>
  <path d="M 429.5 305.6 L 495.2 305.6 L 495.2 434.8 L 429.5 434.8 L 429.5 305.6 Z M 107.9 176.9 L 107.9 167.1 C 107.9 164.5 105.8 162.4 103.2 162.4 L 34.4 162.4 C 31.8 162.4 29.7 164.5 29.7 167.1 L 29.7 176.9 L 107.9 176.9 Z M 29.7 187.6 L 107.9 187.6 L 107.9 193.7 L 29.7 193.7 L 29.7 187.6 Z M 126.9 279.8 L 112.6 279.8 C 110 279.8 107.9 277.7 107.9 275.1 L 107.9 213.1 L 29.7 213.1 L 29.7 275.1 C 29.7 277.7 27.6 279.8 25 279.8 L 10.7 279.8 C 6.9 279.8 4.7 284 6.9 287.1 L 65 371.2 C 66.9 373.9 70.8 373.9 72.7 371.2 L 130.8 287.1 C 132.9 284 130.7 279.8 126.9 279.8 Z" fill="#1b91e0" class="fill-000000"/>
  <text style="white-space: pre; fill: rgb(51, 51, 51); font-family: Arial, sans-serif; font-size: 16.2px;" x="94.194" y="101.707" transform="matrix(4.197303, 0, 0, 4.455659, -314.343964, -343.726074)">Hujjatlar </text>
  <text style="white-space: pre; fill: rgb(51, 51, 51); font-family: Arial, sans-serif; font-size: 16.2px;" x="120.199" y="161.806" transform="matrix(4.22584, 0, 0, 3.322581, -387.742737, -342.253265)">aylanmas</text>
  <text style="fill: rgb(36, 19, 222); font-family: Arial, sans-serif; font-size: 7.7px; white-space: pre;" transform="matrix(13.306061, 0, 0, 13.431502, -1920.601074, -2764.763916)" x="159.074" y="236.5">EDO</text>
</svg>