<svg viewBox="0 0 512 512" xml:space="preserve" xmlns="http://www.w3.org/2000/svg" enable-background="new 0 0 512 512"><path d="M-7305.3-3171.7v164.9h463v-164.9h-463zm161.7 102.3c2.7 3.6 6.3 5.3 10.9 5.3 4.5 0 7.9-1.2 10.3-3.5 2.3-2.4 3.5-5.8 3.5-10.2h10.6l.1.3c.1 6.7-2 12-6.5 16.1-4.4 4.1-10.5 6.1-18 6.1-7.7 0-13.9-2.6-18.7-7.8-4.8-5.2-7.2-11.8-7.2-19.9v-12.6c0-8 2.4-14.7 7.1-19.9s10.9-7.8 18.5-7.8c7.8 0 13.9 2 18.4 5.9 4.5 4 6.6 9.4 6.5 16.3l-.1.3h-10.7c0-4.4-1.2-7.8-3.6-10.1-2.4-2.3-5.9-3.5-10.5-3.5-4.5 0-8 1.8-10.6 5.3-2.6 3.6-3.9 8-3.9 13.5v12.7c0 5.4 1.3 9.9 3.9 13.5zm88.2 9.2c-4.3 3.3-9.9 4.9-16.9 4.9-6.7 0-12.6-1.8-17.6-5.4-5-3.6-7.4-8.6-7.3-15.1l.1-.3h10.6c0 4 1.4 6.9 4.1 9 2.7 2 6.1 3 10 3 3.9 0 6.9-.8 9.1-2.5 2.2-1.6 3.2-3.9 3.2-6.7 0-2.8-1-5-2.9-6.8-2-1.8-5.4-3.3-10.4-4.7-7.1-2-12.6-4.5-16.4-7.7-3.9-3.2-5.8-7.4-5.8-12.5 0-5.3 2.1-9.7 6.4-13.2 4.2-3.4 9.7-5.2 16.3-5.2 7.1 0 12.8 1.9 17.1 5.7 4.3 3.8 6.3 8.6 6.2 14.2l-.1.3h-10.6c0-3.5-1.2-6.2-3.5-8.3-2.3-2.1-5.4-3.1-9.2-3.1-3.7 0-6.6.9-8.6 2.6-2 1.8-3 4-3 6.8 0 2.5 1.1 4.6 3.3 6.3 2.2 1.6 5.9 3.2 11 4.7 6.9 1.9 12.2 4.6 15.8 7.9 3.6 3.3 5.4 7.6 5.4 12.8.2 5.7-2 10-6.3 13.3zm59.9 0c-4.3 3.3-9.9 4.9-16.9 4.9-6.7 0-12.6-1.8-17.6-5.4-5-3.6-7.4-8.6-7.3-15.1l.1-.3h10.6c0 4 1.4 6.9 4.1 9 2.7 2 6.1 3 10 3 3.9 0 6.9-.8 9.1-2.5 2.2-1.6 3.2-3.9 3.2-6.7 0-2.8-1-5-2.9-6.8-2-1.8-5.4-3.3-10.4-4.7-7.1-2-12.6-4.5-16.4-7.7-3.9-3.2-5.8-7.4-5.8-12.5 0-5.3 2.1-9.7 6.4-13.2 4.2-3.4 9.7-5.2 16.3-5.2 7.1 0 12.8 1.9 17.1 5.7 4.3 3.8 6.3 8.6 6.2 14.2l-.1.3h-10.6c0-3.5-1.2-6.2-3.5-8.3-2.3-2.1-5.4-3.1-9.2-3.1-3.7 0-6.6.9-8.6 2.6-2 1.8-3 4-3 6.8 0 2.5 1.1 4.6 3.3 6.3 2.2 1.6 5.9 3.2 11 4.7 6.9 1.9 12.2 4.6 15.8 7.9s5.4 7.6 5.4 12.8c.2 5.7-2 10-6.3 13.3zM429.5 114.9h-58.3c-18.7 0-33.8-15.3-33.8-34.1V22" fill="#1b91e0" class="fill-000000"></path><path d="M396.8 497H101.5c-21.9 0-39.7-17.8-39.7-39.7V348.5h14v108.8c0 14.2 11.5 25.7 25.7 25.7h295.3c14.2 0 25.7-11.5 25.7-25.7V113.9L341.3 29H101.5c-14.2 0-25.7 11.5-25.7 25.7v112.6h-14V54.7c0-21.9 17.8-39.7 39.7-39.7h245.8l89.2 93.3v349.1c0 21.8-17.8 39.6-39.7 39.6z" fill="#1b91e0" class="fill-000000"></path><path d="M482.5 447.8h-279c-13 0-23.5-10.6-23.5-23.5V322.1c0-13 10.6-23.5 23.5-23.5h279c13 0 23.5 10.6 23.5 23.5v102.2c0 12.9-10.6 23.5-23.5 23.5zm-279-135.2c-5.3 0-9.5 4.3-9.5 9.5v102.2c0 5.3 4.3 9.5 9.5 9.5h279c5.3 0 9.5-4.3 9.5-9.5V322.1c0-5.3-4.3-9.5-9.5-9.5h-279z" fill="#1b91e0" class="fill-000000"></path><path d="M429.5 305.6h65.7v129.2h-65.7zM107.9 176.9v-9.8c0-2.6-2.1-4.7-4.7-4.7H34.4c-2.6 0-4.7 2.1-4.7 4.7v9.8h78.2zM29.7 187.6h78.2v6.1H29.7zM126.9 279.8h-14.3c-2.6 0-4.7-2.1-4.7-4.7v-62H29.7v62c0 2.6-2.1 4.7-4.7 4.7H10.7c-3.8 0-6 4.2-3.8 7.3L65 371.2c1.9 2.7 5.8 2.7 7.7 0l58.1-84.1c2.1-3.1-.1-7.3-3.9-7.3zM215.4 407.2v-68h22.5c8.6 0 15.6 2.7 21.1 8.1 5.4 5.4 8.1 12.3 8.1 20.8v10.3c0 8.5-2.7 15.4-8.1 20.8-5.4 5.4-12.4 8-21.1 8h-22.5zm11.3-58.9v49.9h11.1c5.5 0 9.8-1.8 13-5.5 3.2-3.7 4.8-8.4 4.8-14.2V368c0-5.7-1.6-10.4-4.8-14.1-3.2-3.7-7.5-5.5-13-5.5h-11.1zM335.8 379.3c0 8.3-2.6 15.2-7.8 20.7-5.2 5.5-12 8.2-20.4 8.2-8.1 0-14.8-2.7-19.9-8.2-5.1-5.5-7.7-12.4-7.7-20.7v-12.2c0-8.3 2.5-15.2 7.6-20.7s11.7-8.2 19.9-8.2c8.3 0 15.1 2.7 20.3 8.2 5.2 5.5 7.9 12.4 7.9 20.7v12.2zM324.4 367c0-5.7-1.5-10.3-4.5-14-3-3.6-7.1-5.5-12.3-5.5-5 0-9 1.8-11.8 5.5-2.9 3.6-4.3 8.3-4.3 14v12.3c0 5.7 1.4 10.4 4.3 14.1 2.9 3.7 6.8 5.5 11.8 5.5 5.2 0 9.3-1.8 12.3-5.5 3-3.6 4.5-8.3 4.5-14.1V367zM400.5 385l.1.3c.1 6.9-2.1 12.4-6.7 16.6-4.6 4.2-10.8 6.3-18.6 6.3-7.9 0-14.3-2.7-19.3-8-4.9-5.3-7.4-12.2-7.4-20.5v-12.9c0-8.3 2.4-15.1 7.3-20.5s11.2-8.1 19-8.1c8 0 14.3 2 18.9 6.1 4.6 4.1 6.8 9.7 6.7 16.8l-.1.3h-11c0-4.5-1.2-8-3.7-10.4-2.5-2.4-6.1-3.6-10.8-3.6-4.6 0-8.3 1.8-11 5.5-2.7 3.7-4 8.3-4 13.9v13c0 5.6 1.4 10.3 4.1 13.9 2.7 3.7 6.5 5.5 11.2 5.5 4.6 0 8.2-1.2 10.6-3.6 2.4-2.4 3.6-5.9 3.6-10.5h11.1z" fill="#1b91e0" class="fill-000000"></path></svg>