<?xml version="1.0" encoding="utf-8"?>
<svg width="800px" height="800px" viewBox="0 0 512 512" version="1.1" xmlns="http://www.w3.org/2000/svg">
  <g id="file__x2C__doc__x2C__word__x2C__document__x2C_" style="" transform="matrix(1.605527, 0, 0, 1.582943, -38.042885, 202.528534)">
    <g id="Layer_116">
      <g>
        <g style="" transform="matrix(0.389232, 0, 0, 0.383392, -4.915817, 14.083111)">
          <polygon points="107.071,25.467 349.079,25.467 420.601,97.709       420.601,447.742 107.071,447.742     " style="fill-rule:evenodd;clip-rule:evenodd;fill:#FFFFFF;"/>
          <path d="M420.601,454.602H107.071c-3.79,0-6.859-3.068-6.859-6.859V25.467c0-3.79,3.069-6.86,6.859-6.86      h242.008c1.831,0,3.583,0.729,4.877,2.033l71.522,72.242c1.271,1.285,1.986,3.02,1.986,4.827v350.033      C427.465,451.533,424.391,454.602,420.601,454.602z M113.932,440.883h299.813V100.531L346.22,32.327H113.932V440.883z" style="fill:#4C8CF9;"/>
        </g>
        <g style="" transform="matrix(0.389232, 0, 0, 0.383392, -4.915817, 14.083111)">
          <rect height="105.6" style="fill-rule:evenodd;clip-rule:evenodd;fill:#4C8CF9;" width="313.532" x="129.98" y="177.615"/>
        </g>
        <g/>
        <g/>
        <g/>
        <g style="" transform="matrix(0.389232, 0, 0, 0.383392, -4.915817, 14.083111)">
          <polygon points="349.079,97.709 420.601,97.709 349.079,25.467           " style="fill-rule:evenodd;clip-rule:evenodd;fill:#D4E4FF;"/>
          <path d="M420.601,104.569h-71.521c-3.79,0-6.86-3.07-6.86-6.86V25.467c0-2.781,1.68-5.286,4.249-6.346      c2.579-1.056,5.534-0.455,7.488,1.519l71.522,72.242c1.95,1.969,2.519,4.914,1.454,7.47      C425.868,102.908,423.372,104.569,420.601,104.569z M355.938,90.85h48.217l-48.217-48.703V90.85z" style="fill:#4C8CF9;"/>
        </g>
        <g/>
        <g/>
        <g/>
        <g/>
        <g style="" transform="matrix(0.389232, 0, 0, 0.383392, -4.915817, 14.083111)">
          <path d="M373.72,326.398H164.61c-3.791,0-6.86-3.07-6.86-6.859c0-3.791,3.069-6.861,6.86-6.861h209.11      c3.79,0,6.859,3.07,6.859,6.861C380.579,323.328,377.51,326.398,373.72,326.398z" style="fill:#4C8CF9;"/>
        </g>
        <g style="" transform="matrix(0.389232, 0, 0, 0.383392, -4.915817, 14.083111)">
          <path d="M373.72,361.914H164.61c-3.791,0-6.86-3.07-6.86-6.859c0-3.791,3.069-6.861,6.86-6.861h209.11      c3.79,0,6.859,3.07,6.859,6.861C380.579,358.844,377.51,361.914,373.72,361.914z" style="fill:#4C8CF9;"/>
        </g>
        <g style="" transform="matrix(0.389232, 0, 0, 0.383392, -4.915817, 14.083111)">
          <path d="M300.463,397.563H164.61c-3.791,0-6.86-3.07-6.86-6.859c0-3.791,3.069-6.861,6.86-6.861h135.853      c3.79,0,6.864,3.07,6.864,6.861C307.327,394.492,304.253,397.563,300.463,397.563z" style="fill:#4C8CF9;"/>
        </g>
      </g>
    </g>
  </g>
  <g id="Layer_1"/>
  <g id="g-1" style="" transform="matrix(1.605527, 0, 0, 1.582943, -18.902292, 176.427719)">
    <g id="g-2">
      <g>
        <g style="" transform="matrix(0.389232, 0, 0, 0.383392, -4.915817, 14.083111)">
          <polygon points="107.071,25.467 349.079,25.467 420.601,97.709       420.601,447.742 107.071,447.742     " style="fill-rule:evenodd;clip-rule:evenodd;fill:#FFFFFF;"/>
          <path d="M420.601,454.602H107.071c-3.79,0-6.859-3.068-6.859-6.859V25.467c0-3.79,3.069-6.86,6.859-6.86      h242.008c1.831,0,3.583,0.729,4.877,2.033l71.522,72.242c1.271,1.285,1.986,3.02,1.986,4.827v350.033      C427.465,451.533,424.391,454.602,420.601,454.602z M113.932,440.883h299.813V100.531L346.22,32.327H113.932V440.883z" style="fill:#4C8CF9;"/>
        </g>
        <g style="" transform="matrix(0.389232, 0, 0, 0.383392, -4.915817, 14.083111)">
          <rect height="105.6" style="fill-rule:evenodd;clip-rule:evenodd;fill:#4C8CF9;" width="313.532" x="129.98" y="177.615"/>
        </g>
        <g/>
        <g/>
        <g/>
        <g style="" transform="matrix(0.389232, 0, 0, 0.383392, -4.915817, 14.083111)">
          <polygon points="349.079,97.709 420.601,97.709 349.079,25.467           " style="fill-rule:evenodd;clip-rule:evenodd;fill:#D4E4FF;"/>
          <path d="M420.601,104.569h-71.521c-3.79,0-6.86-3.07-6.86-6.86V25.467c0-2.781,1.68-5.286,4.249-6.346      c2.579-1.056,5.534-0.455,7.488,1.519l71.522,72.242c1.95,1.969,2.519,4.914,1.454,7.47      C425.868,102.908,423.372,104.569,420.601,104.569z M355.938,90.85h48.217l-48.217-48.703V90.85z" style="fill:#4C8CF9;"/>
        </g>
        <g/>
        <g/>
        <g/>
        <g/>
        <g style="" transform="matrix(0.389232, 0, 0, 0.383392, -4.915817, 14.083111)">
          <path d="M373.72,326.398H164.61c-3.791,0-6.86-3.07-6.86-6.859c0-3.791,3.069-6.861,6.86-6.861h209.11      c3.79,0,6.859,3.07,6.859,6.861C380.579,323.328,377.51,326.398,373.72,326.398z" style="fill:#4C8CF9;"/>
        </g>
        <g style="" transform="matrix(0.389232, 0, 0, 0.383392, -4.915817, 14.083111)">
          <path d="M373.72,361.914H164.61c-3.791,0-6.86-3.07-6.86-6.859c0-3.791,3.069-6.861,6.86-6.861h209.11      c3.79,0,6.859,3.07,6.859,6.861C380.579,358.844,377.51,361.914,373.72,361.914z" style="fill:#4C8CF9;"/>
        </g>
        <g style="" transform="matrix(0.389232, 0, 0, 0.383392, -4.915817, 14.083111)">
          <path d="M300.463,397.563H164.61c-3.791,0-6.86-3.07-6.86-6.859c0-3.791,3.069-6.861,6.86-6.861h135.853      c3.79,0,6.864,3.07,6.864,6.861C307.327,394.492,304.253,397.563,300.463,397.563z" style="fill:#4C8CF9;"/>
        </g>
      </g>
    </g>
  </g>
  <g id="g-3" style="" transform="matrix(1.605527, 0, 0, 1.582943, 33.299332, 155.547073)">
    <g id="g-4">
      <g>
        <g style="" transform="matrix(0.389232, 0, 0, 0.383392, -4.915817, 14.083111)">
          <polygon points="107.071,25.467 349.079,25.467 420.601,97.709       420.601,447.742 107.071,447.742     " style="fill-rule:evenodd;clip-rule:evenodd;fill:#FFFFFF;"/>
          <path d="M420.601,454.602H107.071c-3.79,0-6.859-3.068-6.859-6.859V25.467c0-3.79,3.069-6.86,6.859-6.86      h242.008c1.831,0,3.583,0.729,4.877,2.033l71.522,72.242c1.271,1.285,1.986,3.02,1.986,4.827v350.033      C427.465,451.533,424.391,454.602,420.601,454.602z M113.932,440.883h299.813V100.531L346.22,32.327H113.932V440.883z" style="fill:#4C8CF9;"/>
        </g>
        <g style="" transform="matrix(0.389232, 0, 0, 0.383392, -4.915817, 14.083111)">
          <rect height="105.6" style="fill-rule:evenodd;clip-rule:evenodd;fill:#4C8CF9;" width="313.532" x="129.98" y="177.615"/>
        </g>
        <g/>
        <g/>
        <g/>
        <g style="" transform="matrix(0.389232, 0, 0, 0.383392, -4.915817, 14.083111)">
          <polygon points="349.079,97.709 420.601,97.709 349.079,25.467           " style="fill-rule:evenodd;clip-rule:evenodd;fill:#D4E4FF;"/>
          <path d="M420.601,104.569h-71.521c-3.79,0-6.86-3.07-6.86-6.86V25.467c0-2.781,1.68-5.286,4.249-6.346      c2.579-1.056,5.534-0.455,7.488,1.519l71.522,72.242c1.95,1.969,2.519,4.914,1.454,7.47      C425.868,102.908,423.372,104.569,420.601,104.569z M355.938,90.85h48.217l-48.217-48.703V90.85z" style="fill:#4C8CF9;"/>
        </g>
        <g/>
        <g/>
        <g/>
        <g/>
        <g style="" transform="matrix(0.389232, 0, 0, 0.383392, -4.915817, 14.083111)">
          <path d="M373.72,326.398H164.61c-3.791,0-6.86-3.07-6.86-6.859c0-3.791,3.069-6.861,6.86-6.861h209.11      c3.79,0,6.859,3.07,6.859,6.861C380.579,323.328,377.51,326.398,373.72,326.398z" style="fill:#4C8CF9;"/>
        </g>
        <g style="" transform="matrix(0.389232, 0, 0, 0.383392, -4.915817, 14.083111)">
          <path d="M373.72,361.914H164.61c-3.791,0-6.86-3.07-6.86-6.859c0-3.791,3.069-6.861,6.86-6.861h209.11      c3.79,0,6.859,3.07,6.859,6.861C380.579,358.844,377.51,361.914,373.72,361.914z" style="fill:#4C8CF9;"/>
        </g>
        <g style="" transform="matrix(0.389232, 0, 0, 0.383392, -4.915817, 14.083111)">
          <path d="M300.463,397.563H164.61c-3.791,0-6.86-3.07-6.86-6.859c0-3.791,3.069-6.861,6.86-6.861h135.853      c3.79,0,6.864,3.07,6.864,6.861C307.327,394.492,304.253,397.563,300.463,397.563z" style="fill:#4C8CF9;"/>
        </g>
      </g>
    </g>
  </g>
  <g id="g-5" style="" transform="matrix(1.605527, 0, 0, 1.582943, 75.060631, 136.406479)">
    <g id="g-6">
      <g>
        <g style="" transform="matrix(0.389232, 0, 0, 0.383392, -4.915817, 14.083111)">
          <polygon points="107.071,25.467 349.079,25.467 420.601,97.709       420.601,447.742 107.071,447.742     " style="fill-rule:evenodd;clip-rule:evenodd;fill:#FFFFFF;"/>
          <path d="M420.601,454.602H107.071c-3.79,0-6.859-3.068-6.859-6.859V25.467c0-3.79,3.069-6.86,6.859-6.86      h242.008c1.831,0,3.583,0.729,4.877,2.033l71.522,72.242c1.271,1.285,1.986,3.02,1.986,4.827v350.033      C427.465,451.533,424.391,454.602,420.601,454.602z M113.932,440.883h299.813V100.531L346.22,32.327H113.932V440.883z" style="fill:#4C8CF9;"/>
        </g>
        <g style="" transform="matrix(0.389232, 0, 0, 0.383392, -4.915817, 14.083111)">
          <rect height="105.6" style="fill-rule:evenodd;clip-rule:evenodd;fill:#4C8CF9;" width="313.532" x="129.98" y="177.615"/>
        </g>
        <g/>
        <g/>
        <g/>
        <g style="" transform="matrix(0.389232, 0, 0, 0.383392, -4.915817, 14.083111)">
          <polygon points="349.079,97.709 420.601,97.709 349.079,25.467           " style="fill-rule:evenodd;clip-rule:evenodd;fill:#D4E4FF;"/>
          <path d="M420.601,104.569h-71.521c-3.79,0-6.86-3.07-6.86-6.86V25.467c0-2.781,1.68-5.286,4.249-6.346      c2.579-1.056,5.534-0.455,7.488,1.519l71.522,72.242c1.95,1.969,2.519,4.914,1.454,7.47      C425.868,102.908,423.372,104.569,420.601,104.569z M355.938,90.85h48.217l-48.217-48.703V90.85z" style="fill:#4C8CF9;"/>
        </g>
        <g/>
        <g/>
        <g/>
        <g/>
        <g style="" transform="matrix(0.389232, 0, 0, 0.383392, -4.915817, 14.083111)">
          <path d="M373.72,326.398H164.61c-3.791,0-6.86-3.07-6.86-6.859c0-3.791,3.069-6.861,6.86-6.861h209.11      c3.79,0,6.859,3.07,6.859,6.861C380.579,323.328,377.51,326.398,373.72,326.398z" style="fill:#4C8CF9;"/>
        </g>
        <g style="" transform="matrix(0.389232, 0, 0, 0.383392, -4.915817, 14.083111)">
          <path d="M373.72,361.914H164.61c-3.791,0-6.86-3.07-6.86-6.859c0-3.791,3.069-6.861,6.86-6.861h209.11      c3.79,0,6.859,3.07,6.859,6.861C380.579,358.844,377.51,361.914,373.72,361.914z" style="fill:#4C8CF9;"/>
        </g>
        <g style="" transform="matrix(0.389232, 0, 0, 0.383392, -4.915817, 14.083111)">
          <path d="M300.463,397.563H164.61c-3.791,0-6.86-3.07-6.86-6.859c0-3.791,3.069-6.861,6.86-6.861h135.853      c3.79,0,6.864,3.07,6.864,6.861C307.327,394.492,304.253,397.563,300.463,397.563z" style="fill:#4C8CF9;"/>
        </g>
      </g>
    </g>
  </g>
  <g id="g-7" style="" transform="matrix(1.605527, 0, 0, 1.582943, 120.30204, 109.435638)">
    <g id="g-8">
      <g>
        <g style="" transform="matrix(0.389232, 0, 0, 0.383392, -4.915817, 14.083111)">
          <polygon points="107.071,25.467 349.079,25.467 420.601,97.709       420.601,447.742 107.071,447.742     " style="fill-rule:evenodd;clip-rule:evenodd;fill:#FFFFFF;"/>
          <path d="M420.601,454.602H107.071c-3.79,0-6.859-3.068-6.859-6.859V25.467c0-3.79,3.069-6.86,6.859-6.86      h242.008c1.831,0,3.583,0.729,4.877,2.033l71.522,72.242c1.271,1.285,1.986,3.02,1.986,4.827v350.033      C427.465,451.533,424.391,454.602,420.601,454.602z M113.932,440.883h299.813V100.531L346.22,32.327H113.932V440.883z" style="fill:#4C8CF9;"/>
        </g>
        <g style="" transform="matrix(0.389232, 0, 0, 0.383392, -4.915817, 14.083111)">
          <rect height="105.6" style="fill-rule:evenodd;clip-rule:evenodd;fill:#4C8CF9;" width="313.532" x="129.98" y="177.615"/>
        </g>
        <g/>
        <g/>
        <g/>
        <g style="" transform="matrix(0.389232, 0, 0, 0.383392, -4.915817, 14.083111)">
          <polygon points="349.079,97.709 420.601,97.709 349.079,25.467           " style="fill-rule:evenodd;clip-rule:evenodd;fill:#D4E4FF;"/>
          <path d="M420.601,104.569h-71.521c-3.79,0-6.86-3.07-6.86-6.86V25.467c0-2.781,1.68-5.286,4.249-6.346      c2.579-1.056,5.534-0.455,7.488,1.519l71.522,72.242c1.95,1.969,2.519,4.914,1.454,7.47      C425.868,102.908,423.372,104.569,420.601,104.569z M355.938,90.85h48.217l-48.217-48.703V90.85z" style="fill:#4C8CF9;"/>
        </g>
        <g/>
        <g/>
        <g/>
        <g/>
        <g style="" transform="matrix(0.389232, 0, 0, 0.383392, -4.915817, 14.083111)">
          <path d="M373.72,326.398H164.61c-3.791,0-6.86-3.07-6.86-6.859c0-3.791,3.069-6.861,6.86-6.861h209.11      c3.79,0,6.859,3.07,6.859,6.861C380.579,323.328,377.51,326.398,373.72,326.398z" style="fill:#4C8CF9;"/>
        </g>
        <g style="" transform="matrix(0.389232, 0, 0, 0.383392, -4.915817, 14.083111)">
          <path d="M373.72,361.914H164.61c-3.791,0-6.86-3.07-6.86-6.859c0-3.791,3.069-6.861,6.86-6.861h209.11      c3.79,0,6.859,3.07,6.859,6.861C380.579,358.844,377.51,361.914,373.72,361.914z" style="fill:#4C8CF9;"/>
        </g>
        <g style="" transform="matrix(0.389232, 0, 0, 0.383392, -4.915817, 14.083111)">
          <path d="M300.463,397.563H164.61c-3.791,0-6.86-3.07-6.86-6.859c0-3.791,3.069-6.861,6.86-6.861h135.853      c3.79,0,6.864,3.07,6.864,6.861C307.327,394.492,304.253,397.563,300.463,397.563z" style="fill:#4C8CF9;"/>
        </g>
      </g>
    </g>
  </g>
  <g id="g-9" style="" transform="matrix(1.605527, 0, 0, 1.582943, 170.763611, 85.944908)">
    <g id="g-10">
      <g>
        <g style="" transform="matrix(0.389232, 0, 0, 0.383392, -4.915817, 14.083111)">
          <polygon points="107.071,25.467 349.079,25.467 420.601,97.709       420.601,447.742 107.071,447.742     " style="fill-rule:evenodd;clip-rule:evenodd;fill:#FFFFFF;"/>
          <path d="M420.601,454.602H107.071c-3.79,0-6.859-3.068-6.859-6.859V25.467c0-3.79,3.069-6.86,6.859-6.86      h242.008c1.831,0,3.583,0.729,4.877,2.033l71.522,72.242c1.271,1.285,1.986,3.02,1.986,4.827v350.033      C427.465,451.533,424.391,454.602,420.601,454.602z M113.932,440.883h299.813V100.531L346.22,32.327H113.932V440.883z" style="fill:#4C8CF9;"/>
        </g>
        <g style="" transform="matrix(0.389232, 0, 0, 0.383392, -4.915817, 14.083111)">
          <rect height="105.6" style="fill-rule:evenodd;clip-rule:evenodd;fill:#4C8CF9;" width="313.532" x="129.98" y="177.615"/>
        </g>
        <g/>
        <g/>
        <g/>
        <g style="" transform="matrix(0.389232, 0, 0, 0.383392, -4.915817, 14.083111)">
          <polygon points="349.079,97.709 420.601,97.709 349.079,25.467           " style="fill-rule:evenodd;clip-rule:evenodd;fill:#D4E4FF;"/>
          <path d="M420.601,104.569h-71.521c-3.79,0-6.86-3.07-6.86-6.86V25.467c0-2.781,1.68-5.286,4.249-6.346      c2.579-1.056,5.534-0.455,7.488,1.519l71.522,72.242c1.95,1.969,2.519,4.914,1.454,7.47      C425.868,102.908,423.372,104.569,420.601,104.569z M355.938,90.85h48.217l-48.217-48.703V90.85z" style="fill:#4C8CF9;"/>
        </g>
        <g/>
        <g/>
        <g/>
        <g/>
        <g style="" transform="matrix(0.389232, 0, 0, 0.383392, -4.915817, 14.083111)">
          <path d="M373.72,326.398H164.61c-3.791,0-6.86-3.07-6.86-6.859c0-3.791,3.069-6.861,6.86-6.861h209.11      c3.79,0,6.859,3.07,6.859,6.861C380.579,323.328,377.51,326.398,373.72,326.398z" style="fill:#4C8CF9;"/>
        </g>
        <g style="" transform="matrix(0.389232, 0, 0, 0.383392, -4.915817, 14.083111)">
          <path d="M373.72,361.914H164.61c-3.791,0-6.86-3.07-6.86-6.859c0-3.791,3.069-6.861,6.86-6.861h209.11      c3.79,0,6.859,3.07,6.859,6.861C380.579,358.844,377.51,361.914,373.72,361.914z" style="fill:#4C8CF9;"/>
        </g>
        <g style="" transform="matrix(0.389232, 0, 0, 0.383392, -4.915817, 14.083111)">
          <path d="M300.463,397.563H164.61c-3.791,0-6.86-3.07-6.86-6.859c0-3.791,3.069-6.861,6.86-6.861h135.853      c3.79,0,6.864,3.07,6.864,6.861C307.327,394.492,304.253,397.563,300.463,397.563z" style="fill:#4C8CF9;"/>
        </g>
      </g>
    </g>
  </g>
  <g id="g-11" style="" transform="matrix(1.605527, 0, 0, 1.582943, 222.96524, 60.714123)">
    <g id="g-12">
      <g>
        <g style="" transform="matrix(0.389232, 0, 0, 0.383392, -4.915817, 14.083111)">
          <polygon points="107.071,25.467 349.079,25.467 420.601,97.709       420.601,447.742 107.071,447.742     " style="fill-rule:evenodd;clip-rule:evenodd;fill:#FFFFFF;"/>
          <path d="M420.601,454.602H107.071c-3.79,0-6.859-3.068-6.859-6.859V25.467c0-3.79,3.069-6.86,6.859-6.86      h242.008c1.831,0,3.583,0.729,4.877,2.033l71.522,72.242c1.271,1.285,1.986,3.02,1.986,4.827v350.033      C427.465,451.533,424.391,454.602,420.601,454.602z M113.932,440.883h299.813V100.531L346.22,32.327H113.932V440.883z" style="fill:#4C8CF9;"/>
        </g>
        <g style="" transform="matrix(0.389232, 0, 0, 0.383392, -4.915817, 14.083111)">
          <rect height="105.6" style="fill-rule:evenodd;clip-rule:evenodd;fill:#4C8CF9;" width="313.532" x="129.98" y="177.615"/>
        </g>
        <g/>
        <g/>
        <g/>
        <g style="" transform="matrix(0.389232, 0, 0, 0.383392, -4.915817, 14.083111)">
          <polygon points="349.079,97.709 420.601,97.709 349.079,25.467           " style="fill-rule:evenodd;clip-rule:evenodd;fill:#D4E4FF;"/>
          <path d="M420.601,104.569h-71.521c-3.79,0-6.86-3.07-6.86-6.86V25.467c0-2.781,1.68-5.286,4.249-6.346      c2.579-1.056,5.534-0.455,7.488,1.519l71.522,72.242c1.95,1.969,2.519,4.914,1.454,7.47      C425.868,102.908,423.372,104.569,420.601,104.569z M355.938,90.85h48.217l-48.217-48.703V90.85z" style="fill:#4C8CF9;"/>
        </g>
        <g/>
        <g/>
        <g/>
        <g/>
        <g style="" transform="matrix(0.389232, 0, 0, 0.383392, -4.915817, 14.083111)">
          <path d="M373.72,326.398H164.61c-3.791,0-6.86-3.07-6.86-6.859c0-3.791,3.069-6.861,6.86-6.861h209.11      c3.79,0,6.859,3.07,6.859,6.861C380.579,323.328,377.51,326.398,373.72,326.398z" style="fill:#4C8CF9;"/>
        </g>
        <g style="" transform="matrix(0.389232, 0, 0, 0.383392, -4.915817, 14.083111)">
          <path d="M373.72,361.914H164.61c-3.791,0-6.86-3.07-6.86-6.859c0-3.791,3.069-6.861,6.86-6.861h209.11      c3.79,0,6.859,3.07,6.859,6.861C380.579,358.844,377.51,361.914,373.72,361.914z" style="fill:#4C8CF9;"/>
        </g>
        <g style="" transform="matrix(0.389232, 0, 0, 0.383392, -4.915817, 14.083111)">
          <path d="M300.463,397.563H164.61c-3.791,0-6.86-3.07-6.86-6.859c0-3.791,3.069-6.861,6.86-6.861h135.853      c3.79,0,6.864,3.07,6.864,6.861C307.327,394.492,304.253,397.563,300.463,397.563z" style="fill:#4C8CF9;"/>
        </g>
      </g>
    </g>
  </g>
</svg>