<svg viewBox="0 0 512 512" xml:space="preserve" xmlns="http://www.w3.org/2000/svg" enable-background="new 0 0 512 512"><path d="M333.4 6.1h-105v20.7h96.2v104.4h104.7v251.3H82.7v-114H62V506h388V121.9L333.4 6.1zm-27.9 408.7h9.5l10.1 18 10.2-18h9.6l-15 24.1 15.5 24.5h-9.7l-10.5-18.3-10.5 18.3h-9.6l15.3-24.5-14.9-24.1zm-43.9 19.7c0-5.9 1.7-10.8 5.2-14.6 3.5-3.8 8-5.8 13.6-5.8 5.7 0 10.2 1.5 13.5 4.4 3.3 2.9 4.9 6.9 4.8 12l-.1.2h-7.8c0-3.2-.9-5.7-2.6-7.5-1.8-1.7-4.3-2.6-7.7-2.6-3.3 0-5.9 1.3-7.8 3.9-1.9 2.6-2.9 5.9-2.9 9.9v9.3c0 4 1 7.3 2.9 10 2 2.6 4.6 3.9 8 3.9 3.3 0 5.8-.9 7.6-2.6 1.7-1.7 2.6-4.2 2.6-7.5h7.8l.1.2c.1 4.9-1.5 8.9-4.8 11.9s-7.7 4.5-13.3 4.5c-5.7 0-10.2-1.9-13.8-5.7-3.5-3.8-5.3-8.7-5.3-14.6v-9.3zm-48.9.3c0-5.9 1.8-10.8 5.5-14.8 3.6-3.9 8.4-5.9 14.2-5.9 5.9 0 10.8 2 14.5 5.9 3.7 3.9 5.6 8.8 5.6 14.8v8.7c0 5.9-1.9 10.9-5.6 14.8-3.7 3.9-8.6 5.9-14.5 5.9-5.8 0-10.5-2-14.2-5.9-3.6-3.9-5.5-8.8-5.5-14.8v-8.7zm-46.3-20h16.1c6.2 0 11.2 1.9 15 5.8 3.9 3.8 5.8 8.8 5.8 14.9v7.4c0 6.1-1.9 11-5.8 14.9-3.9 3.8-8.9 5.7-15 5.7h-16.1v-48.7z" fill="#17c8eb" class="fill-000000"></path><path d="M200.7 240.6V6H62.1v234.6l69.3-69.6zM191.8 453c2.3-2.6 3.4-6 3.4-10.2v-7.4c0-4.1-1.1-7.5-3.4-10.1-2.3-2.6-5.4-4-9.3-4h-7.9V457h7.9c3.9 0 7-1.3 9.3-4zM232.3 457.5c3.7 0 6.6-1.3 8.8-3.9 2.1-2.6 3.2-6 3.2-10.1v-8.8c0-4-1.1-7.4-3.2-10-2.2-2.6-5.1-3.9-8.8-3.9-3.6 0-6.4 1.3-8.5 3.9-2.1 2.6-3.1 5.9-3.1 10v8.8c0 4.1 1 7.4 3.1 10.1 2.2 2.6 5 3.9 8.5 3.9z" fill="#17c8eb" class="fill-000000"></path></svg>