<svg viewBox="0 0 512 512" xml:space="preserve" xmlns="http://www.w3.org/2000/svg" enable-background="new 0 0 512 512"><circle cx="439.9" cy="208.7" r="2.1" fill="#17bf71" class="fill-000000"></circle><circle cx="86.6" cy="125.9" r="2.1" fill="#17bf71" class="fill-000000"></circle><circle cx="219.7" cy="30" r="2.1" fill="#17bf71" class="fill-000000"></circle><circle cx="393.2" cy="39.2" r="2.1" fill="#17bf71" class="fill-000000"></circle><circle cx="67.7" cy="260.9" r="2.1" fill="#17bf71" class="fill-000000"></circle><path d="M86.6 49.6h-3.5v-3.5c0-1.9-1.6-3.5-3.5-3.5s-3.5 1.6-3.5 3.5v3.5h-3.5c-1.9 0-3.5 1.6-3.5 3.5s1.6 3.5 3.5 3.5h3.5v3.5c0 1.9 1.6 3.5 3.5 3.5s3.5-1.6 3.5-3.5v-3.5h3.5c1.9 0 3.5-1.6 3.5-3.5s-1.6-3.5-3.5-3.5z" fill="#f16723" class="fill-f16723"></path><circle cx="369" cy="32.2" r="3.1" fill="#17bf71" class="fill-000000"></circle><circle cx="429.4" cy="178.3" r="3.1" fill="#17bf71" class="fill-000000"></circle><path d="M420.3 89.7c-6.6 0-11.9-5.3-11.9-11.9s5.3-11.9 11.9-11.9 11.9 5.3 11.9 11.9-5.3 11.9-11.9 11.9zm0-16.8c-2.7 0-4.9 2.2-4.9 4.9s2.2 4.9 4.9 4.9 4.9-2.2 4.9-4.9-2.2-4.9-4.9-4.9z" fill="#fbd20a" class="fill-fbd20a"></path><path d="M453.9 357.6h-3.5v-3.5c0-1.9-1.6-3.5-3.5-3.5s-3.5 1.6-3.5 3.5v3.5h-3.5c-1.9 0-3.5 1.6-3.5 3.5s1.6 3.5 3.5 3.5h3.5v3.5c0 1.9 1.6 3.5 3.5 3.5s3.5-1.6 3.5-3.5v-3.5h3.5c1.9 0 3.5-1.6 3.5-3.5s-1.6-3.5-3.5-3.5z" fill="#4e9bd4" class="fill-4e9bd4"></path><path d="M79.6 304.9h-3.5v-3.5c0-1.9-1.6-3.5-3.5-3.5s-3.5 1.6-3.5 3.5v3.5h-3.5c-1.9 0-3.5 1.6-3.5 3.5s1.6 3.5 3.5 3.5h3.5v3.5c0 1.9 1.6 3.5 3.5 3.5s3.5-1.6 3.5-3.5v-3.5h3.5c1.9 0 3.5-1.6 3.5-3.5s-1.6-3.5-3.5-3.5z" fill="#fbd20a" class="fill-fbd20a"></path><path d="M106.2 447.2c-4.6 0-8.4-3.8-8.4-8.4s3.8-8.4 8.4-8.4 8.4 3.8 8.4 8.4-3.8 8.4-8.4 8.4zm0-9.8c-.8 0-1.4.6-1.4 1.4s.6 1.4 1.4 1.4 1.4-.6 1.4-1.4-.6-1.4-1.4-1.4z" fill="#4e9bd4" class="fill-4e9bd4"></path><path d="M104.6 55h242.7v341H104.6z" fill="#ffffff" class="fill-ffffff"></path><path d="M347.3 402H104.6c-3.3 0-6-2.7-6-6V55c0-3.3 2.7-6 6-6h242.7c3.3 0 6 2.7 6 6v341c0 3.3-2.7 6-6 6zm-236.7-12h230.7V61H110.6v329z" fill="#17bf71" class="fill-000000"></path><path d="M134.6 86h242.7v341H134.6z" fill="#ffffff" class="fill-ffffff"></path><path d="M377.3 433H134.6c-3.3 0-6-2.7-6-6V86c0-3.3 2.7-6 6-6h242.7c3.3 0 6 2.7 6 6v341c0 3.3-2.7 6-6 6zm-236.7-12h230.7V92H140.6v329z" fill="#17bf71" class="fill-000000"></path><path d="M164.6 116h242.7v341H164.6z" fill="#ffffff" class="fill-ffffff"></path><path d="M407.3 463H164.6c-3.3 0-6-2.7-6-6V116c0-3.3 2.7-6 6-6h242.7c3.3 0 6 2.7 6 6v341c0 3.3-2.7 6-6 6zm-236.7-12h230.7V122H170.6v329z" fill="#17bf71" class="fill-000000"></path><path d="M372 225.5H200c-3.3 0-6-2.7-6-6s2.7-6 6-6h172c3.3 0 6 2.7 6 6s-2.7 6-6 6zM316.3 181.6H200c-3.3 0-6-2.7-6-6s2.7-6 6-6h116.3c3.3 0 6 2.7 6 6s-2.7 6-6 6zM372 252.5H200c-3.3 0-6-2.7-6-6s2.7-6 6-6h172c3.3 0 6 2.7 6 6s-2.7 6-6 6zM372 279.5H200c-3.3 0-6-2.7-6-6s2.7-6 6-6h172c3.3 0 6 2.7 6 6s-2.7 6-6 6zM372 306.5H200c-3.3 0-6-2.7-6-6s2.7-6 6-6h172c3.3 0 6 2.7 6 6s-2.7 6-6 6zM372 333.5H200c-3.3 0-6-2.7-6-6s2.7-6 6-6h172c3.3 0 6 2.7 6 6s-2.7 6-6 6zM372 360.5H200c-3.3 0-6-2.7-6-6s2.7-6 6-6h172c3.3 0 6 2.7 6 6s-2.7 6-6 6zM372 387.5H200c-3.3 0-6-2.7-6-6s2.7-6 6-6h172c3.3 0 6 2.7 6 6s-2.7 6-6 6zM316.3 414.5H200c-3.3 0-6-2.7-6-6s2.7-6 6-6h116.3c3.3 0 6 2.7 6 6s-2.7 6-6 6z" fill="#17bf71" class="fill-000000"></path></svg>