<?xml version="1.0" encoding="utf-8"?>
<svg height="800px" width="800px" version="1.1" id="Capa_1" viewBox="0 0 512 512" xmlns="http://www.w3.org/2000/svg">
  <path fill="#dbb065" d="M 10.778 500.563 L 10.778 116.132 L 143.658 116.132 L 182.388 153.334 L 449.709 153.334 L 449.709 500.563 L 10.778 500.563 Z" style=""/>
  <path fill="#967a44" d="M 140.985 122.332 L 175.933 155.902 L 179.715 159.536 L 185.059 159.536 L 443.254 159.536 L 443.254 494.362 L 17.233 494.362 L 17.233 122.332 L 140.985 122.332 M 146.331 109.931 L 4.323 109.931 L 4.323 506.763 L 456.164 506.763 L 456.164 147.133 L 185.059 147.133 L 146.331 109.931 Z" style=""/>
  <g transform="matrix(12.909741, 0, 0, 12.401009, -8.585616, 60.327161)" style="">
    <path fill="#f5ce85" d="M1.599 35.5L5.417 14.5 16.151 14.5 19.151 12.5 39.41 12.5 35.577 35.5z"/>
    <path fill="#967a44" d="M38.82,13l-3.667,22H2.198l3.636-20H16h0.303l0.252-0.168L19.303,13H38.82 M40,12H19l-3,2H5L1,36 h35L40,12L40,12z"/>
  </g>
</svg>