<svg version="1.1" id="Layer_1" xmlns="http://www.w3.org/2000/svg" x="0" y="0" width="70" height="70" xml:space="preserve"><path fill="none" d="M0 70h70V0H0z"/><path fill="#667882" d="M10.924 11.887h49.473a4.32 4.32 0 0 1 4.32 4.32v37.586a4.32 4.32 0 0 1-4.32 4.32H10.924a4.32 4.32 0 0 1-4.32-4.32V16.207a4.32 4.32 0 0 1 4.32-4.32z"/><path opacity=".9" fill="#FFF" d="M7.924 17.17h55.472v36.742a2.88 2.88 0 0 1-2.881 2.881h-49.71a2.88 2.88 0 0 1-2.88-2.881V17.17z"/><path fill="#667882" d="M11.887 21.132H34.34v17.171H11.887zM36.98 35.66h22.453v17.17H36.98zm-25.093 5.283H34.34V52.83H11.887zM36.98 21.132h22.453v11.887H36.98z"/><path fill="#8097A3" d="M13.208 22.453h19.811V36.98H13.208zM38.303 36.98h19.811v14.528H38.303z"/><path fill="#FFF" d="M48.207 44.245a2.311 2.311 0 1 0 .002-4.622 2.311 2.311 0 0 0-.002 4.622zm0 1.155c-1.543 0-4.622.775-4.622 2.312v1.154h9.245v-1.154c0-1.536-3.08-2.312-4.623-2.312z"/><path fill="#8097A3" d="M38.303 22.453h19.811v9.245H38.303z"/><circle fill="#CCD5DA" cx="42.925" cy="27.075" r="1.981"/><circle fill="#8097A3" cx="42.925" cy="27.075" r="1"/><path opacity=".6" fill="#FFF" d="M44.906 26.415h7.925v1.321h-7.925z"/><path fill="#FFF" d="M48.868 26.415h3.962v1.321h-3.962z"/><circle fill="#FFF" cx="53.491" cy="27.075" r="1.981"/><circle fill="#8097A3" cx="53.491" cy="27.075" r="1"/><path fill="#8097A3" d="M13.208 42.264h19.811v9.245H13.208z"/><path fill="#FFF" d="M18.104 46.307h-.934l1.321 1.32.467.467.466-.467 1.321-1.32h-.934l1.321 1.32.467.467.467-.467 1.321-1.32-.934-.934-1.321 1.32h.934l-1.321-1.32-.467-.467-.467.467-1.32 1.32h.933l-1.32-1.32-.467-.467-.467.467-1.321 1.32.934.934z"/><path fill="#FFF" d="M23.387 46.307h-.934l1.321 1.32.467.467.466-.467 1.321-1.32h-.934l1.321 1.32.467.467.467-.467 1.321-1.32-.934-.934-1.321 1.32h.934l-1.321-1.32-.467-.467-.467.467-1.32 1.32h.933l-1.32-1.32-.467-.467-.467.467-1.321 1.32.934.934zm-.934-21.213v5.236h5.236a4.623 4.623 0 1 1-5.236-5.236z"/><path opacity=".6" fill="#FFF" d="M23.773 25.094a4.627 4.627 0 0 1 3.916 3.916h-3.916v-3.916z"/></svg>