<?xml version="1.0" encoding="utf-8"?>
<svg height="800px" width="800px" version="1.1" id="Capa_1" viewBox="0 0 512 512" xmlns="http://www.w3.org/2000/svg" xmlns:bx="https://boxy-svg.com">
  <defs>
    <filter id="drop-shadow-filter-0" color-interpolation-filters="sRGB" x="-50%" y="-50%" width="200%" height="200%" bx:preset="drop-shadow 1 3 2 3 0.35 rgba(0,0,0,0.3)">
      <feGaussianBlur in="SourceAlpha" stdDeviation="3"/>
      <feOffset dx="3" dy="2"/>
      <feComponentTransfer result="offsetblur">
        <feFuncA id="spread-ctrl" type="linear" slope="0.7"/>
      </feComponentTransfer>
      <feFlood flood-color="rgba(0,0,0,0.3)"/>
      <feComposite in2="offsetblur" operator="in"/>
      <feMerge>
        <feMergeNode/>
        <feMergeNode in="SourceGraphic"/>
      </feMerge>
    </filter>
    <filter id="filter-1" color-interpolation-filters="sRGB" x="-50%" y="-50%" width="200%" height="200%" bx:preset="drop-shadow 1 3 2 3 0.35 rgba(0,0,0,0.3)">
      <feGaussianBlur in="SourceAlpha" stdDeviation="3"/>
      <feOffset dx="3" dy="2"/>
      <feComponentTransfer result="offsetblur">
        <feFuncA id="feFuncA-1" type="linear" slope="0.7"/>
      </feComponentTransfer>
      <feFlood flood-color="rgba(0,0,0,0.3)"/>
      <feComposite in2="offsetblur" operator="in"/>
      <feMerge>
        <feMergeNode/>
        <feMergeNode in="SourceGraphic"/>
      </feMerge>
    </filter>
    <filter id="filter-2" color-interpolation-filters="sRGB" x="-50%" y="-50%" width="200%" height="200%" bx:preset="drop-shadow 1 3 2 3 0.35 rgba(0,0,0,0.3)">
      <feGaussianBlur in="SourceAlpha" stdDeviation="3"/>
      <feOffset dx="3" dy="2"/>
      <feComponentTransfer result="offsetblur">
        <feFuncA id="feFuncA-2" type="linear" slope="0.7"/>
      </feComponentTransfer>
      <feFlood flood-color="rgba(0,0,0,0.3)"/>
      <feComposite in2="offsetblur" operator="in"/>
      <feMerge>
        <feMergeNode/>
        <feMergeNode in="SourceGraphic"/>
      </feMerge>
    </filter>
    <filter id="filter-3" color-interpolation-filters="sRGB" x="-50%" y="-50%" width="200%" height="200%" bx:preset="drop-shadow 1 3 2 3 0.35 rgba(0,0,0,0.3)">
      <feGaussianBlur in="SourceAlpha" stdDeviation="3"/>
      <feOffset dx="3" dy="2"/>
      <feComponentTransfer result="offsetblur">
        <feFuncA id="feFuncA-3" type="linear" slope="0.7"/>
      </feComponentTransfer>
      <feFlood flood-color="rgba(0,0,0,0.3)"/>
      <feComposite in2="offsetblur" operator="in"/>
      <feMerge>
        <feMergeNode/>
        <feMergeNode in="SourceGraphic"/>
      </feMerge>
    </filter>
  </defs>
  <path id="SVGCleanerId_0" style="fill: rgb(255, 195, 110);" d="M 182.829 198.228 L 55.322 198.228 C 48.674 198.228 42.595 194.738 39.623 189.212 L 26.919 165.608 L 39.623 142.004 C 42.595 136.478 48.673 132.987 55.322 132.987 L 182.83 132.987 C 189.479 132.987 195.558 136.478 198.531 142.004 L 211.231 165.608 L 198.53 189.212 C 195.557 194.738 189.479 198.228 182.829 198.228 Z"/>
  <g transform="matrix(0.994245, 0, 0, 0.923834, 0.588455, 84.054818)" style="">
    <path id="SVGCleanerId_0_1_" style="fill:#FFC36E;" d="M183.295,123.586H55.05c-6.687,0-12.801-3.778-15.791-9.76l-12.776-25.55 l12.776-25.55c2.99-5.982,9.103-9.76,15.791-9.76h128.246c6.687,0,12.801,3.778,15.791,9.76l12.775,25.55l-12.776,25.55 C196.096,119.808,189.983,123.586,183.295,123.586z"/>
  </g>
  <path style="fill: rgb(239, 242, 250);" d="M 483.312 149.297 L 26.919 149.297 C 22.072 149.297 18.142 152.949 18.142 157.453 L 18.142 198.229 L 492.089 198.229 L 492.089 157.452 C 492.089 152.948 488.159 149.297 483.312 149.297 Z"/>
  <g>
    <g style="filter: url('#drop-shadow-filter-0'); transform-origin: 28px 28px;" transform="matrix(4.71281, 0, 0, 4.717211, 98.651657, 262.939636)">
      <path style="fill:#E9E9E0;" d="M36.985,0H7.963C7.155,0,6.5,0.655,6.5,1.926V55c0,0.345,0.655,1,1.463,1h40.074 c0.808,0,1.463-0.655,1.463-1V12.978c0-0.696-0.093-0.92-0.257-1.085L37.607,0.257C37.442,0.093,37.218,0,36.985,0z"/>
      <polygon style="fill:#D9D7CA;" points="37.5,0.151 37.5,12 49.349,12 &#9;"/>
      <path style="fill:#8697CB;" d="M18.5,13h-6c-0.552,0-1-0.448-1-1s0.448-1,1-1h6c0.552,0,1,0.448,1,1S19.052,13,18.5,13z"/>
      <path style="fill:#8697CB;" d="M21.5,18h-9c-0.552,0-1-0.448-1-1s0.448-1,1-1h9c0.552,0,1,0.448,1,1S22.052,18,21.5,18z"/>
      <path style="fill:#8697CB;" d="M25.5,18c-0.26,0-0.52-0.11-0.71-0.29c-0.18-0.19-0.29-0.45-0.29-0.71c0-0.26,0.11-0.52,0.29-0.71 c0.37-0.37,1.05-0.37,1.42,0c0.18,0.19,0.29,0.45,0.29,0.71c0,0.26-0.11,0.52-0.29,0.71C26.02,17.89,25.76,18,25.5,18z"/>
      <path style="fill:#8697CB;" d="M37.5,18h-8c-0.552,0-1-0.448-1-1s0.448-1,1-1h8c0.552,0,1,0.448,1,1S38.052,18,37.5,18z"/>
      <path style="fill:#8697CB;" d="M12.5,33c-0.26,0-0.52-0.11-0.71-0.29c-0.18-0.19-0.29-0.45-0.29-0.71c0-0.26,0.11-0.52,0.29-0.71 c0.37-0.37,1.05-0.37,1.42,0c0.18,0.19,0.29,0.44,0.29,0.71c0,0.26-0.11,0.52-0.29,0.71C13.02,32.89,12.76,33,12.5,33z"/>
      <path style="fill:#8697CB;" d="M24.5,33h-8c-0.552,0-1-0.448-1-1s0.448-1,1-1h8c0.552,0,1,0.448,1,1S25.052,33,24.5,33z"/>
      <path style="fill:#8697CB;" d="M43.5,18h-2c-0.552,0-1-0.448-1-1s0.448-1,1-1h2c0.552,0,1,0.448,1,1S44.052,18,43.5,18z"/>
      <path style="fill:#8697CB;" d="M34.5,23h-22c-0.552,0-1-0.448-1-1s0.448-1,1-1h22c0.552,0,1,0.448,1,1S35.052,23,34.5,23z"/>
      <path style="fill:#8697CB;" d="M43.5,23h-6c-0.552,0-1-0.448-1-1s0.448-1,1-1h6c0.552,0,1,0.448,1,1S44.052,23,43.5,23z"/>
      <path style="fill:#8697CB;" d="M16.5,28h-4c-0.552,0-1-0.448-1-1s0.448-1,1-1h4c0.552,0,1,0.448,1,1S17.052,28,16.5,28z"/>
      <path style="fill:#8697CB;" d="M30.5,28h-10c-0.552,0-1-0.448-1-1s0.448-1,1-1h10c0.552,0,1,0.448,1,1S31.052,28,30.5,28z"/>
      <path style="fill:#8697CB;" d="M43.5,28h-9c-0.552,0-1-0.448-1-1s0.448-1,1-1h9c0.552,0,1,0.448,1,1S44.052,28,43.5,28z"/>
      <path style="fill:#0096E6;" d="M48.037,56H7.963C7.155,56,6.5,55.345,6.5,54.537V39h43v15.537C49.5,55.345,48.845,56,48.037,56z"/>
      <g>
        <path style="fill:#FFFFFF;" d="M23.5,47.682c0,0.829-0.089,1.538-0.267,2.126s-0.403,1.08-0.677,1.477s-0.581,0.709-0.923,0.937 s-0.672,0.398-0.991,0.513c-0.319,0.114-0.611,0.187-0.875,0.219C19.503,52.984,19.307,53,19.18,53h-3.814V42.924H18.4 c0.848,0,1.593,0.135,2.235,0.403s1.176,0.627,1.6,1.073s0.74,0.955,0.95,1.524C23.395,46.494,23.5,47.08,23.5,47.682z M18.633,51.797c1.112,0,1.914-0.355,2.406-1.066s0.738-1.741,0.738-3.09c0-0.419-0.05-0.834-0.15-1.244 c-0.101-0.41-0.294-0.781-0.581-1.114s-0.677-0.602-1.169-0.807s-1.13-0.308-1.914-0.308h-0.957v7.629H18.633z"/>
        <path style="fill:#FFFFFF;" d="M33.475,47.914c0,0.848-0.107,1.595-0.321,2.242c-0.214,0.647-0.511,1.185-0.889,1.613 c-0.378,0.429-0.82,0.752-1.326,0.971s-1.06,0.328-1.661,0.328s-1.155-0.109-1.661-0.328s-0.948-0.542-1.326-0.971 c-0.378-0.429-0.675-0.966-0.889-1.613c-0.214-0.647-0.321-1.395-0.321-2.242s0.107-1.593,0.321-2.235 c0.214-0.643,0.51-1.178,0.889-1.606c0.378-0.429,0.82-0.754,1.326-0.978s1.06-0.335,1.661-0.335s1.155,0.111,1.661,0.335 s0.948,0.549,1.326,0.978c0.378,0.429,0.674,0.964,0.889,1.606C33.367,46.321,33.475,47.066,33.475,47.914z M29.236,51.729 c0.337,0,0.658-0.066,0.964-0.198c0.305-0.132,0.579-0.349,0.82-0.649c0.241-0.301,0.431-0.695,0.567-1.183 s0.209-1.082,0.219-1.784c-0.009-0.684-0.08-1.265-0.212-1.743c-0.132-0.479-0.314-0.873-0.547-1.183s-0.497-0.533-0.793-0.67 c-0.296-0.137-0.608-0.205-0.937-0.205c-0.337,0-0.659,0.063-0.964,0.191c-0.306,0.128-0.579,0.344-0.82,0.649 c-0.242,0.306-0.431,0.699-0.567,1.183s-0.21,1.075-0.219,1.777c0.009,0.684,0.08,1.267,0.212,1.75 c0.132,0.483,0.314,0.877,0.547,1.183s0.497,0.528,0.793,0.67C28.596,51.658,28.908,51.729,29.236,51.729z"/>
        <path style="fill:#FFFFFF;" d="M42.607,51.975c-0.374,0.364-0.798,0.638-1.271,0.82c-0.474,0.183-0.984,0.273-1.531,0.273 c-0.602,0-1.155-0.109-1.661-0.328s-0.948-0.542-1.326-0.971c-0.378-0.429-0.675-0.966-0.889-1.613 c-0.214-0.647-0.321-1.395-0.321-2.242s0.107-1.593,0.321-2.235c0.214-0.643,0.51-1.178,0.889-1.606 c0.378-0.429,0.822-0.754,1.333-0.978c0.51-0.224,1.062-0.335,1.654-0.335c0.547,0,1.057,0.091,1.531,0.273 c0.474,0.183,0.897,0.456,1.271,0.82l-1.135,1.012c-0.228-0.265-0.481-0.456-0.759-0.574c-0.278-0.118-0.567-0.178-0.868-0.178 c-0.337,0-0.659,0.063-0.964,0.191c-0.306,0.128-0.579,0.344-0.82,0.649c-0.242,0.306-0.431,0.699-0.567,1.183 s-0.21,1.075-0.219,1.777c0.009,0.684,0.08,1.267,0.212,1.75c0.132,0.483,0.314,0.877,0.547,1.183s0.497,0.528,0.793,0.67 c0.296,0.142,0.608,0.212,0.937,0.212s0.636-0.06,0.923-0.178s0.549-0.31,0.786-0.574L42.607,51.975z"/>
      </g>
    </g>
    <g style="filter: url('#filter-1'); transform-origin: 28px 28px;" transform="matrix(4.71281, 0, 0, 4.717211, 177.716431, 275.996216)">
      <path style="fill:#E9E9E0;" d="M36.985,0H7.963C7.155,0,6.5,0.655,6.5,1.926V55c0,0.345,0.655,1,1.463,1h40.074 c0.808,0,1.463-0.655,1.463-1V12.978c0-0.696-0.093-0.92-0.257-1.085L37.607,0.257C37.442,0.093,37.218,0,36.985,0z"/>
      <polygon style="fill:#D9D7CA;" points="37.5,0.151 37.5,12 49.349,12 &#9;"/>
      <path style="fill:#8697CB;" d="M18.5,13h-6c-0.552,0-1-0.448-1-1s0.448-1,1-1h6c0.552,0,1,0.448,1,1S19.052,13,18.5,13z"/>
      <path style="fill:#8697CB;" d="M21.5,18h-9c-0.552,0-1-0.448-1-1s0.448-1,1-1h9c0.552,0,1,0.448,1,1S22.052,18,21.5,18z"/>
      <path style="fill:#8697CB;" d="M25.5,18c-0.26,0-0.52-0.11-0.71-0.29c-0.18-0.19-0.29-0.45-0.29-0.71c0-0.26,0.11-0.52,0.29-0.71 c0.37-0.37,1.05-0.37,1.42,0c0.18,0.19,0.29,0.45,0.29,0.71c0,0.26-0.11,0.52-0.29,0.71C26.02,17.89,25.76,18,25.5,18z"/>
      <path style="fill:#8697CB;" d="M37.5,18h-8c-0.552,0-1-0.448-1-1s0.448-1,1-1h8c0.552,0,1,0.448,1,1S38.052,18,37.5,18z"/>
      <path style="fill:#8697CB;" d="M12.5,33c-0.26,0-0.52-0.11-0.71-0.29c-0.18-0.19-0.29-0.45-0.29-0.71c0-0.26,0.11-0.52,0.29-0.71 c0.37-0.37,1.05-0.37,1.42,0c0.18,0.19,0.29,0.44,0.29,0.71c0,0.26-0.11,0.52-0.29,0.71C13.02,32.89,12.76,33,12.5,33z"/>
      <path style="fill:#8697CB;" d="M24.5,33h-8c-0.552,0-1-0.448-1-1s0.448-1,1-1h8c0.552,0,1,0.448,1,1S25.052,33,24.5,33z"/>
      <path style="fill:#8697CB;" d="M43.5,18h-2c-0.552,0-1-0.448-1-1s0.448-1,1-1h2c0.552,0,1,0.448,1,1S44.052,18,43.5,18z"/>
      <path style="fill:#8697CB;" d="M34.5,23h-22c-0.552,0-1-0.448-1-1s0.448-1,1-1h22c0.552,0,1,0.448,1,1S35.052,23,34.5,23z"/>
      <path style="fill:#8697CB;" d="M43.5,23h-6c-0.552,0-1-0.448-1-1s0.448-1,1-1h6c0.552,0,1,0.448,1,1S44.052,23,43.5,23z"/>
      <path style="fill:#8697CB;" d="M16.5,28h-4c-0.552,0-1-0.448-1-1s0.448-1,1-1h4c0.552,0,1,0.448,1,1S17.052,28,16.5,28z"/>
      <path style="fill:#8697CB;" d="M30.5,28h-10c-0.552,0-1-0.448-1-1s0.448-1,1-1h10c0.552,0,1,0.448,1,1S31.052,28,30.5,28z"/>
      <path style="fill:#8697CB;" d="M43.5,28h-9c-0.552,0-1-0.448-1-1s0.448-1,1-1h9c0.552,0,1,0.448,1,1S44.052,28,43.5,28z"/>
      <path style="fill:#0096E6;" d="M48.037,56H7.963C7.155,56,6.5,55.345,6.5,54.537V39h43v15.537C49.5,55.345,48.845,56,48.037,56z"/>
      <g>
        <path style="fill:#FFFFFF;" d="M23.5,47.682c0,0.829-0.089,1.538-0.267,2.126s-0.403,1.08-0.677,1.477s-0.581,0.709-0.923,0.937 s-0.672,0.398-0.991,0.513c-0.319,0.114-0.611,0.187-0.875,0.219C19.503,52.984,19.307,53,19.18,53h-3.814V42.924H18.4 c0.848,0,1.593,0.135,2.235,0.403s1.176,0.627,1.6,1.073s0.74,0.955,0.95,1.524C23.395,46.494,23.5,47.08,23.5,47.682z M18.633,51.797c1.112,0,1.914-0.355,2.406-1.066s0.738-1.741,0.738-3.09c0-0.419-0.05-0.834-0.15-1.244 c-0.101-0.41-0.294-0.781-0.581-1.114s-0.677-0.602-1.169-0.807s-1.13-0.308-1.914-0.308h-0.957v7.629H18.633z"/>
        <path style="fill:#FFFFFF;" d="M33.475,47.914c0,0.848-0.107,1.595-0.321,2.242c-0.214,0.647-0.511,1.185-0.889,1.613 c-0.378,0.429-0.82,0.752-1.326,0.971s-1.06,0.328-1.661,0.328s-1.155-0.109-1.661-0.328s-0.948-0.542-1.326-0.971 c-0.378-0.429-0.675-0.966-0.889-1.613c-0.214-0.647-0.321-1.395-0.321-2.242s0.107-1.593,0.321-2.235 c0.214-0.643,0.51-1.178,0.889-1.606c0.378-0.429,0.82-0.754,1.326-0.978s1.06-0.335,1.661-0.335s1.155,0.111,1.661,0.335 s0.948,0.549,1.326,0.978c0.378,0.429,0.674,0.964,0.889,1.606C33.367,46.321,33.475,47.066,33.475,47.914z M29.236,51.729 c0.337,0,0.658-0.066,0.964-0.198c0.305-0.132,0.579-0.349,0.82-0.649c0.241-0.301,0.431-0.695,0.567-1.183 s0.209-1.082,0.219-1.784c-0.009-0.684-0.08-1.265-0.212-1.743c-0.132-0.479-0.314-0.873-0.547-1.183s-0.497-0.533-0.793-0.67 c-0.296-0.137-0.608-0.205-0.937-0.205c-0.337,0-0.659,0.063-0.964,0.191c-0.306,0.128-0.579,0.344-0.82,0.649 c-0.242,0.306-0.431,0.699-0.567,1.183s-0.21,1.075-0.219,1.777c0.009,0.684,0.08,1.267,0.212,1.75 c0.132,0.483,0.314,0.877,0.547,1.183s0.497,0.528,0.793,0.67C28.596,51.658,28.908,51.729,29.236,51.729z"/>
        <path style="fill:#FFFFFF;" d="M42.607,51.975c-0.374,0.364-0.798,0.638-1.271,0.82c-0.474,0.183-0.984,0.273-1.531,0.273 c-0.602,0-1.155-0.109-1.661-0.328s-0.948-0.542-1.326-0.971c-0.378-0.429-0.675-0.966-0.889-1.613 c-0.214-0.647-0.321-1.395-0.321-2.242s0.107-1.593,0.321-2.235c0.214-0.643,0.51-1.178,0.889-1.606 c0.378-0.429,0.822-0.754,1.333-0.978c0.51-0.224,1.062-0.335,1.654-0.335c0.547,0,1.057,0.091,1.531,0.273 c0.474,0.183,0.897,0.456,1.271,0.82l-1.135,1.012c-0.228-0.265-0.481-0.456-0.759-0.574c-0.278-0.118-0.567-0.178-0.868-0.178 c-0.337,0-0.659,0.063-0.964,0.191c-0.306,0.128-0.579,0.344-0.82,0.649c-0.242,0.306-0.431,0.699-0.567,1.183 s-0.21,1.075-0.219,1.777c0.009,0.684,0.08,1.267,0.212,1.75c0.132,0.483,0.314,0.877,0.547,1.183s0.497,0.528,0.793,0.67 c0.296,0.142,0.608,0.212,0.937,0.212s0.636-0.06,0.923-0.178s0.549-0.31,0.786-0.574L42.607,51.975z"/>
      </g>
    </g>
    <g style="filter: url('#filter-2'); transform-origin: 28px 28px;" transform="matrix(4.71281, 0, 0, 4.717211, 293.049438, 263.665009)">
      <path style="fill:#E9E9E0;" d="M36.985,0H7.963C7.155,0,6.5,0.655,6.5,1.926V55c0,0.345,0.655,1,1.463,1h40.074 c0.808,0,1.463-0.655,1.463-1V12.978c0-0.696-0.093-0.92-0.257-1.085L37.607,0.257C37.442,0.093,37.218,0,36.985,0z"/>
      <polygon style="fill:#D9D7CA;" points="37.5,0.151 37.5,12 49.349,12 &#9;"/>
      <path style="fill:#8697CB;" d="M18.5,13h-6c-0.552,0-1-0.448-1-1s0.448-1,1-1h6c0.552,0,1,0.448,1,1S19.052,13,18.5,13z"/>
      <path style="fill:#8697CB;" d="M21.5,18h-9c-0.552,0-1-0.448-1-1s0.448-1,1-1h9c0.552,0,1,0.448,1,1S22.052,18,21.5,18z"/>
      <path style="fill:#8697CB;" d="M25.5,18c-0.26,0-0.52-0.11-0.71-0.29c-0.18-0.19-0.29-0.45-0.29-0.71c0-0.26,0.11-0.52,0.29-0.71 c0.37-0.37,1.05-0.37,1.42,0c0.18,0.19,0.29,0.45,0.29,0.71c0,0.26-0.11,0.52-0.29,0.71C26.02,17.89,25.76,18,25.5,18z"/>
      <path style="fill:#8697CB;" d="M37.5,18h-8c-0.552,0-1-0.448-1-1s0.448-1,1-1h8c0.552,0,1,0.448,1,1S38.052,18,37.5,18z"/>
      <path style="fill:#8697CB;" d="M12.5,33c-0.26,0-0.52-0.11-0.71-0.29c-0.18-0.19-0.29-0.45-0.29-0.71c0-0.26,0.11-0.52,0.29-0.71 c0.37-0.37,1.05-0.37,1.42,0c0.18,0.19,0.29,0.44,0.29,0.71c0,0.26-0.11,0.52-0.29,0.71C13.02,32.89,12.76,33,12.5,33z"/>
      <path style="fill:#8697CB;" d="M24.5,33h-8c-0.552,0-1-0.448-1-1s0.448-1,1-1h8c0.552,0,1,0.448,1,1S25.052,33,24.5,33z"/>
      <path style="fill:#8697CB;" d="M43.5,18h-2c-0.552,0-1-0.448-1-1s0.448-1,1-1h2c0.552,0,1,0.448,1,1S44.052,18,43.5,18z"/>
      <path style="fill:#8697CB;" d="M34.5,23h-22c-0.552,0-1-0.448-1-1s0.448-1,1-1h22c0.552,0,1,0.448,1,1S35.052,23,34.5,23z"/>
      <path style="fill:#8697CB;" d="M43.5,23h-6c-0.552,0-1-0.448-1-1s0.448-1,1-1h6c0.552,0,1,0.448,1,1S44.052,23,43.5,23z"/>
      <path style="fill:#8697CB;" d="M16.5,28h-4c-0.552,0-1-0.448-1-1s0.448-1,1-1h4c0.552,0,1,0.448,1,1S17.052,28,16.5,28z"/>
      <path style="fill:#8697CB;" d="M30.5,28h-10c-0.552,0-1-0.448-1-1s0.448-1,1-1h10c0.552,0,1,0.448,1,1S31.052,28,30.5,28z"/>
      <path style="fill:#8697CB;" d="M43.5,28h-9c-0.552,0-1-0.448-1-1s0.448-1,1-1h9c0.552,0,1,0.448,1,1S44.052,28,43.5,28z"/>
      <path style="fill:#0096E6;" d="M48.037,56H7.963C7.155,56,6.5,55.345,6.5,54.537V39h43v15.537C49.5,55.345,48.845,56,48.037,56z"/>
      <g>
        <path style="fill:#FFFFFF;" d="M23.5,47.682c0,0.829-0.089,1.538-0.267,2.126s-0.403,1.08-0.677,1.477s-0.581,0.709-0.923,0.937 s-0.672,0.398-0.991,0.513c-0.319,0.114-0.611,0.187-0.875,0.219C19.503,52.984,19.307,53,19.18,53h-3.814V42.924H18.4 c0.848,0,1.593,0.135,2.235,0.403s1.176,0.627,1.6,1.073s0.74,0.955,0.95,1.524C23.395,46.494,23.5,47.08,23.5,47.682z M18.633,51.797c1.112,0,1.914-0.355,2.406-1.066s0.738-1.741,0.738-3.09c0-0.419-0.05-0.834-0.15-1.244 c-0.101-0.41-0.294-0.781-0.581-1.114s-0.677-0.602-1.169-0.807s-1.13-0.308-1.914-0.308h-0.957v7.629H18.633z"/>
        <path style="fill:#FFFFFF;" d="M33.475,47.914c0,0.848-0.107,1.595-0.321,2.242c-0.214,0.647-0.511,1.185-0.889,1.613 c-0.378,0.429-0.82,0.752-1.326,0.971s-1.06,0.328-1.661,0.328s-1.155-0.109-1.661-0.328s-0.948-0.542-1.326-0.971 c-0.378-0.429-0.675-0.966-0.889-1.613c-0.214-0.647-0.321-1.395-0.321-2.242s0.107-1.593,0.321-2.235 c0.214-0.643,0.51-1.178,0.889-1.606c0.378-0.429,0.82-0.754,1.326-0.978s1.06-0.335,1.661-0.335s1.155,0.111,1.661,0.335 s0.948,0.549,1.326,0.978c0.378,0.429,0.674,0.964,0.889,1.606C33.367,46.321,33.475,47.066,33.475,47.914z M29.236,51.729 c0.337,0,0.658-0.066,0.964-0.198c0.305-0.132,0.579-0.349,0.82-0.649c0.241-0.301,0.431-0.695,0.567-1.183 s0.209-1.082,0.219-1.784c-0.009-0.684-0.08-1.265-0.212-1.743c-0.132-0.479-0.314-0.873-0.547-1.183s-0.497-0.533-0.793-0.67 c-0.296-0.137-0.608-0.205-0.937-0.205c-0.337,0-0.659,0.063-0.964,0.191c-0.306,0.128-0.579,0.344-0.82,0.649 c-0.242,0.306-0.431,0.699-0.567,1.183s-0.21,1.075-0.219,1.777c0.009,0.684,0.08,1.267,0.212,1.75 c0.132,0.483,0.314,0.877,0.547,1.183s0.497,0.528,0.793,0.67C28.596,51.658,28.908,51.729,29.236,51.729z"/>
        <path style="fill:#FFFFFF;" d="M42.607,51.975c-0.374,0.364-0.798,0.638-1.271,0.82c-0.474,0.183-0.984,0.273-1.531,0.273 c-0.602,0-1.155-0.109-1.661-0.328s-0.948-0.542-1.326-0.971c-0.378-0.429-0.675-0.966-0.889-1.613 c-0.214-0.647-0.321-1.395-0.321-2.242s0.107-1.593,0.321-2.235c0.214-0.643,0.51-1.178,0.889-1.606 c0.378-0.429,0.822-0.754,1.333-0.978c0.51-0.224,1.062-0.335,1.654-0.335c0.547,0,1.057,0.091,1.531,0.273 c0.474,0.183,0.897,0.456,1.271,0.82l-1.135,1.012c-0.228-0.265-0.481-0.456-0.759-0.574c-0.278-0.118-0.567-0.178-0.868-0.178 c-0.337,0-0.659,0.063-0.964,0.191c-0.306,0.128-0.579,0.344-0.82,0.649c-0.242,0.306-0.431,0.699-0.567,1.183 s-0.21,1.075-0.219,1.777c0.009,0.684,0.08,1.267,0.212,1.75c0.132,0.483,0.314,0.877,0.547,1.183s0.497,0.528,0.793,0.67 c0.296,0.142,0.608,0.212,0.937,0.212s0.636-0.06,0.923-0.178s0.549-0.31,0.786-0.574L42.607,51.975z"/>
      </g>
    </g>
    <g style="filter: url('#filter-3'); transform-origin: 28px 28px;" transform="matrix(4.71281, 0, 0, 4.717211, 359.057648, 284.700592)">
      <path style="fill:#E9E9E0;" d="M36.985,0H7.963C7.155,0,6.5,0.655,6.5,1.926V55c0,0.345,0.655,1,1.463,1h40.074 c0.808,0,1.463-0.655,1.463-1V12.978c0-0.696-0.093-0.92-0.257-1.085L37.607,0.257C37.442,0.093,37.218,0,36.985,0z"/>
      <polygon style="fill:#D9D7CA;" points="37.5,0.151 37.5,12 49.349,12 &#9;"/>
      <path style="fill:#8697CB;" d="M18.5,13h-6c-0.552,0-1-0.448-1-1s0.448-1,1-1h6c0.552,0,1,0.448,1,1S19.052,13,18.5,13z"/>
      <path style="fill:#8697CB;" d="M21.5,18h-9c-0.552,0-1-0.448-1-1s0.448-1,1-1h9c0.552,0,1,0.448,1,1S22.052,18,21.5,18z"/>
      <path style="fill:#8697CB;" d="M25.5,18c-0.26,0-0.52-0.11-0.71-0.29c-0.18-0.19-0.29-0.45-0.29-0.71c0-0.26,0.11-0.52,0.29-0.71 c0.37-0.37,1.05-0.37,1.42,0c0.18,0.19,0.29,0.45,0.29,0.71c0,0.26-0.11,0.52-0.29,0.71C26.02,17.89,25.76,18,25.5,18z"/>
      <path style="fill:#8697CB;" d="M37.5,18h-8c-0.552,0-1-0.448-1-1s0.448-1,1-1h8c0.552,0,1,0.448,1,1S38.052,18,37.5,18z"/>
      <path style="fill:#8697CB;" d="M12.5,33c-0.26,0-0.52-0.11-0.71-0.29c-0.18-0.19-0.29-0.45-0.29-0.71c0-0.26,0.11-0.52,0.29-0.71 c0.37-0.37,1.05-0.37,1.42,0c0.18,0.19,0.29,0.44,0.29,0.71c0,0.26-0.11,0.52-0.29,0.71C13.02,32.89,12.76,33,12.5,33z"/>
      <path style="fill:#8697CB;" d="M24.5,33h-8c-0.552,0-1-0.448-1-1s0.448-1,1-1h8c0.552,0,1,0.448,1,1S25.052,33,24.5,33z"/>
      <path style="fill:#8697CB;" d="M43.5,18h-2c-0.552,0-1-0.448-1-1s0.448-1,1-1h2c0.552,0,1,0.448,1,1S44.052,18,43.5,18z"/>
      <path style="fill:#8697CB;" d="M34.5,23h-22c-0.552,0-1-0.448-1-1s0.448-1,1-1h22c0.552,0,1,0.448,1,1S35.052,23,34.5,23z"/>
      <path style="fill:#8697CB;" d="M43.5,23h-6c-0.552,0-1-0.448-1-1s0.448-1,1-1h6c0.552,0,1,0.448,1,1S44.052,23,43.5,23z"/>
      <path style="fill:#8697CB;" d="M16.5,28h-4c-0.552,0-1-0.448-1-1s0.448-1,1-1h4c0.552,0,1,0.448,1,1S17.052,28,16.5,28z"/>
      <path style="fill:#8697CB;" d="M30.5,28h-10c-0.552,0-1-0.448-1-1s0.448-1,1-1h10c0.552,0,1,0.448,1,1S31.052,28,30.5,28z"/>
      <path style="fill:#8697CB;" d="M43.5,28h-9c-0.552,0-1-0.448-1-1s0.448-1,1-1h9c0.552,0,1,0.448,1,1S44.052,28,43.5,28z"/>
      <path style="fill:#0096E6;" d="M48.037,56H7.963C7.155,56,6.5,55.345,6.5,54.537V39h43v15.537C49.5,55.345,48.845,56,48.037,56z"/>
      <g>
        <path style="fill:#FFFFFF;" d="M23.5,47.682c0,0.829-0.089,1.538-0.267,2.126s-0.403,1.08-0.677,1.477s-0.581,0.709-0.923,0.937 s-0.672,0.398-0.991,0.513c-0.319,0.114-0.611,0.187-0.875,0.219C19.503,52.984,19.307,53,19.18,53h-3.814V42.924H18.4 c0.848,0,1.593,0.135,2.235,0.403s1.176,0.627,1.6,1.073s0.74,0.955,0.95,1.524C23.395,46.494,23.5,47.08,23.5,47.682z M18.633,51.797c1.112,0,1.914-0.355,2.406-1.066s0.738-1.741,0.738-3.09c0-0.419-0.05-0.834-0.15-1.244 c-0.101-0.41-0.294-0.781-0.581-1.114s-0.677-0.602-1.169-0.807s-1.13-0.308-1.914-0.308h-0.957v7.629H18.633z"/>
        <path style="fill:#FFFFFF;" d="M33.475,47.914c0,0.848-0.107,1.595-0.321,2.242c-0.214,0.647-0.511,1.185-0.889,1.613 c-0.378,0.429-0.82,0.752-1.326,0.971s-1.06,0.328-1.661,0.328s-1.155-0.109-1.661-0.328s-0.948-0.542-1.326-0.971 c-0.378-0.429-0.675-0.966-0.889-1.613c-0.214-0.647-0.321-1.395-0.321-2.242s0.107-1.593,0.321-2.235 c0.214-0.643,0.51-1.178,0.889-1.606c0.378-0.429,0.82-0.754,1.326-0.978s1.06-0.335,1.661-0.335s1.155,0.111,1.661,0.335 s0.948,0.549,1.326,0.978c0.378,0.429,0.674,0.964,0.889,1.606C33.367,46.321,33.475,47.066,33.475,47.914z M29.236,51.729 c0.337,0,0.658-0.066,0.964-0.198c0.305-0.132,0.579-0.349,0.82-0.649c0.241-0.301,0.431-0.695,0.567-1.183 s0.209-1.082,0.219-1.784c-0.009-0.684-0.08-1.265-0.212-1.743c-0.132-0.479-0.314-0.873-0.547-1.183s-0.497-0.533-0.793-0.67 c-0.296-0.137-0.608-0.205-0.937-0.205c-0.337,0-0.659,0.063-0.964,0.191c-0.306,0.128-0.579,0.344-0.82,0.649 c-0.242,0.306-0.431,0.699-0.567,1.183s-0.21,1.075-0.219,1.777c0.009,0.684,0.08,1.267,0.212,1.75 c0.132,0.483,0.314,0.877,0.547,1.183s0.497,0.528,0.793,0.67C28.596,51.658,28.908,51.729,29.236,51.729z"/>
        <path style="fill:#FFFFFF;" d="M42.607,51.975c-0.374,0.364-0.798,0.638-1.271,0.82c-0.474,0.183-0.984,0.273-1.531,0.273 c-0.602,0-1.155-0.109-1.661-0.328s-0.948-0.542-1.326-0.971c-0.378-0.429-0.675-0.966-0.889-1.613 c-0.214-0.647-0.321-1.395-0.321-2.242s0.107-1.593,0.321-2.235c0.214-0.643,0.51-1.178,0.889-1.606 c0.378-0.429,0.822-0.754,1.333-0.978c0.51-0.224,1.062-0.335,1.654-0.335c0.547,0,1.057,0.091,1.531,0.273 c0.474,0.183,0.897,0.456,1.271,0.82l-1.135,1.012c-0.228-0.265-0.481-0.456-0.759-0.574c-0.278-0.118-0.567-0.178-0.868-0.178 c-0.337,0-0.659,0.063-0.964,0.191c-0.306,0.128-0.579,0.344-0.82,0.649c-0.242,0.306-0.431,0.699-0.567,1.183 s-0.21,1.075-0.219,1.777c0.009,0.684,0.08,1.267,0.212,1.75c0.132,0.483,0.314,0.877,0.547,1.183s0.497,0.528,0.793,0.67 c0.296,0.142,0.608,0.212,0.937,0.212s0.636-0.06,0.923-0.178s0.549-0.31,0.786-0.574L42.607,51.975z"/>
      </g>
    </g>
  </g>
  <g transform="matrix(1, 0, 0, 1, 0.000028, -2.901459)">
    <rect x="18.142" y="181.918" style="fill: rgb(225, 230, 242);" width="473.946" height="16.31"/>
    <path style="fill: rgb(255, 215, 130);" d="M 490.638 271.511 L 215.206 271.511 C 211.881 271.511 208.843 273.255 207.356 276.018 L 197.08 295.115 C 194.107 300.641 188.027 304.131 181.379 304.131 L 53.871 304.131 C 47.223 304.131 41.144 300.641 38.172 295.115 L 27.894 276.018 C 26.408 273.255 23.368 271.511 20.044 271.511 L 16.691 271.511 C 6.996 271.511 -0.862 278.813 -0.862 287.821 L 0.589 491.816 C 0.589 500.824 8.447 508.126 18.142 508.126 L 492.089 508.126 C 501.784 508.126 509.643 500.824 509.643 491.816 L 508.192 287.821 C 508.192 278.813 500.333 271.511 490.638 271.511 Z"/>
    <path style="fill: rgb(255, 195, 110);" d="M 483.312 491.816 L 26.919 491.816 C 22.072 491.816 18.142 488.164 18.142 483.66 C 18.142 479.156 22.072 475.504 26.919 475.504 L 483.312 475.504 C 488.159 475.504 492.089 479.156 492.089 483.66 C 492.089 488.165 488.159 491.816 483.312 491.816 Z"/>
    <path style="fill: rgb(239, 242, 250);" d="M 325.33 436.936 L 456.983 436.936 C 461.83 436.936 465.76 433.284 465.76 428.781 L 465.76 363.539 C 465.76 359.035 461.83 355.383 456.983 355.383 L 325.33 355.383 C 320.484 355.383 316.553 359.035 316.553 363.539 L 316.553 428.781 C 316.553 433.284 320.484 436.936 325.33 436.936 Z"/>
    <path style="fill: rgb(215, 222, 237);" d="M 439.428 420.625 L 342.883 420.625 C 338.037 420.625 334.107 416.973 334.107 412.469 C 334.107 407.966 338.037 404.314 342.883 404.314 L 439.428 404.314 C 444.275 404.314 448.205 407.966 448.205 412.469 C 448.205 416.974 444.275 420.625 439.428 420.625 Z"/>
  </g>
</svg>