<?xml version="1.0" encoding="iso-8859-1"?>
<!-- Uploaded to: SVG Repo, www.svgrepo.com, Generator: SVG Repo Mixer Tools -->
<svg version="1.1" id="Layer_1" xmlns="http://www.w3.org/2000/svg" xmlns:xlink="http://www.w3.org/1999/xlink" 
	 viewBox="0 0 509 509" xml:space="preserve">
<circle style="fill:#71D456;" cx="254.5" cy="254.5" r="254.5"/>
<path style="fill:#646B79;" d="M213.5,335.8l-17.9-5.1l61.5-214.4c2.8-9.7,11.8-16.5,21.9-16.5h122.6c12.5,0,22.8,10.2,22.8,22.8
	v163.3h-18.7V122.5c0-2.3-1.8-4.1-4.1-4.1H279c-1.8,0-3.4,1.2-3.9,3L213.5,335.8z"/>
<polygon style="fill:#414753;" points="164.9,375.7 164.9,308.5 287.4,308.5 185.2,393.1 "/>
<rect x="164.9" y="106.2" style="fill:#646B79;" width="26.6" height="269.5"/>
<g>
	<path style="fill:#4F5565;" d="M299.9,224.4l-35.7-24.7c-2.3-1.6-5.5-1-7.1,1.3s-1,5.5,1.3,7.1l35.7,24.7c2.3,1.6,5.5,1,7.1-1.3
		S302.2,226,299.9,224.4z"/>
	
		<rect x="268.681" y="215.402" transform="matrix(-0.8222 -0.5693 0.5693 -0.8222 366.7698 567.4893)" style="fill:#4F5565;" width="6.7" height="22.101"/>
</g>
<path style="fill:#393D47;" d="M242.4,213.3l30.9,23.7c0,0-17.4,50.7-59.4,58.9L242.4,213.3z"/>
<path style="fill:#FBD303;" d="M302.9,273.3c-15,0-27.2,12.2-27.2,27.2v1.2c0,14.7-11.9,26.5-26.5,26.5h-64v64.9h90.5h28.1h112.3
	c24.5,0,44.4-19.9,44.4-44.4v-75.5H302.9V273.3z"/>
<path style="fill:#F0582F;" d="M390,268h-63.7c-5.2,0-9.3-4.2-9.3-9.3l0,0c0-5.2,4.2-9.3,9.3-9.3h45.1c5.2,0,9.3-4.2,9.3-9.3v-37.4
	c0-5.2,4.2-9.3,9.3-9.3l0,0c5.2,0,9.3,4.2,9.3,9.3v56C399.4,263.8,395.2,268,390,268z"/>
<circle style="fill:#393D47;" cx="203.7" cy="370.5" r="38.8"/>
<circle style="fill:#DEDEDF;" cx="203.7" cy="370.5" r="21.2"/>
<circle style="fill:#646B79;" cx="203.7" cy="370.5" r="8.6"/>
<path style="fill:#080708;" d="M460,355.8c-7.4-12.6-21-21-36.6-21c-23.4,0-42.5,19-42.5,42.5c0,5.6,1.1,11,3.1,15.9h32.1
	C438.3,393.1,456.6,377,460,355.8z"/>
<circle style="fill:#393D47;" cx="423.4" cy="377.3" r="32"/>
<circle style="fill:#DEDEDF;" cx="423.4" cy="377.3" r="17.5"/>
<g>
	<circle style="fill:#646B79;" cx="423.4" cy="377.3" r="7.1"/>
	<rect x="48.4" y="357.1" style="fill:#646B79;" width="116.5" height="18.5"/>
</g>
</svg>