<?xml version="1.0" ?><!DOCTYPE svg  PUBLIC '-//W3C//DTD SVG 1.1//EN'  'http://www.w3.org/Graphics/SVG/1.1/DTD/svg11.dtd'><svg enable-background="new 0 0 128 128" id="Layer_1" version="1.1" viewBox="0 0 128 128" xml:space="preserve" xmlns="http://www.w3.org/2000/svg" xmlns:xlink="http://www.w3.org/1999/xlink"><polyline fill="none" points="16.5,34   16.5,48.5 37,48.5 " stroke="#EEDC00" stroke-linecap="square" stroke-miterlimit="10" stroke-width="3"/><circle cx="16.5" cy="28" fill="none" r="4.33" stroke="#EEDC00" stroke-linecap="square" stroke-miterlimit="10" stroke-width="3"/><polyline fill="none" points="19.5,91   19.5,80.5 40,80.5 " stroke="#EEDC00" stroke-linecap="square" stroke-miterlimit="10" stroke-width="3"/><circle cx="19.5" cy="97.17" fill="none" r="4.33" stroke="#EEDC00" stroke-linecap="square" stroke-miterlimit="10" stroke-width="3"/><circle cx="11.67" cy="64.5" fill="none" r="4.33" stroke="#EEDC00" stroke-linecap="square" stroke-miterlimit="10" stroke-width="3"/><line fill="none" stroke="#EEDC00" stroke-linecap="square" stroke-miterlimit="10" stroke-width="3" x1="16" x2="37" y1="64.5" y2="64.5"/><polyline fill="none" points="110.5,91   110.5,76.5 90,76.5 " stroke="#EEDC00" stroke-linecap="square" stroke-miterlimit="10" stroke-width="3"/><circle cx="110.83" cy="97.17" fill="none" r="4.33" stroke="#EEDC00" stroke-linecap="square" stroke-miterlimit="10" stroke-width="3"/><polyline fill="none" points="107.5,34   107.5,44.5 87,44.5 " stroke="#EEDC00" stroke-linecap="square" stroke-miterlimit="10" stroke-width="3"/><circle cx="107.83" cy="28" fill="none" r="4.33" stroke="#EEDC00" stroke-linecap="square" stroke-miterlimit="10" stroke-width="3"/><circle cx="115.67" cy="60.67" fill="none" r="4.33" stroke="#EEDC00" stroke-linecap="square" stroke-miterlimit="10" stroke-width="3"/><line fill="none" stroke="#EEDC00" stroke-linecap="square" stroke-miterlimit="10" stroke-width="3" x1="111" x2="90" y1="60.5" y2="60.5"/><path d="M112.55,98.06l-14.5-14.5l7.78-7.78l14.5,14.5c2.15,2.15,2.15,5.63,0,7.78l0,0  C118.18,100.2,114.7,100.2,112.55,98.06z" fill="#EC008C"/><path d="M87,105H35c-2.21,0-4-1.79-4-4V27c0-2.21,1.79-4,4-4h52c2.21,0,4,1.79,4,4v74C91,103.21,89.21,105,87,105z"/><path d="M93,105H40c-2.21,0-4-1.79-4-4V28c0-2.21,1.79-5,4-5h53c2.21,0,4,1.79,4,4v74C97,103.21,95.21,105,93,105z" fill="#414042"/><rect fill="#FFF200" height="60" width="49" x="41" y="34"/><circle cx="66.67" cy="99.67" r="2.5"/><g><path d="M72,30H61c-0.55,0-1-0.45-1-1s0.45-1,1-1h11c0.55,0,1,0.45,1,1S72.55,30,72,30z"/></g><rect fill="none" height="31" stroke="#EEDC00" stroke-miterlimit="10" stroke-width="3" width="32" x="50.5" y="48.5"/><line fill="none" stroke="#EEDC00" stroke-miterlimit="10" stroke-width="3" x1="50.5" x2="82.5" y1="79.5" y2="48.5"/><line fill="none" stroke="#EEDC00" stroke-miterlimit="10" stroke-width="3" x1="50.5" x2="82.5" y1="48.5" y2="79.5"/><line fill="none" stroke="#EEDC00" stroke-linecap="square" stroke-miterlimit="10" stroke-width="3" x1="50.5" x2="82" y1="42.33" y2="42.33"/><line fill="none" stroke="#EEDC00" stroke-linecap="square" stroke-miterlimit="10" stroke-width="3" x1="50.5" x2="82.5" y1="86.72" y2="86.72"/><circle cx="91" cy="71.33" fill="#0092C8" r="18"/><circle cx="94" cy="71.33" fill="#00AEEF" r="18"/><circle cx="94" cy="71.33" fill="#00C0F3" r="14.14"/></svg>