<svg viewBox="0 0 512 512" xml:space="preserve" xmlns="http://www.w3.org/2000/svg" enable-background="new 0 0 512 512"><path d="M166.568 394.58H76.366c-17.21 0-31.211 13.93-31.211 31.052v40.026h152.276v-40.383c0-16.925-13.845-30.695-30.863-30.695zm-36.31 57.862h-17.935v-17.85h17.935v17.85zm0-26.789h-17.935v-17.85h17.935v17.85zM179.862 318.371v40.025h152.275V318.02c0-16.926-13.844-30.694-30.86-30.694h-90.203c-17.211 0-31.212 13.926-31.212 31.045zm67.169-17.83h17.934v17.852h-17.934v-17.852zm0 26.791h17.934v17.85h-17.934v-17.85zM390.883 126.002c22.079 0 40.041-17.867 40.041-39.829 0-21.963-17.962-39.831-40.041-39.831-22.08 0-40.046 17.868-40.046 39.831 0 21.963 17.966 39.829 40.046 39.829zM121.471 278.736c-22.081 0-40.046 17.867-40.046 39.829 0 21.964 17.965 39.831 40.046 39.831 22.079 0 40.041-17.867 40.041-39.831 0-21.961-17.963-39.829-40.041-39.829zM216.132 211.305c0 21.963 17.964 39.832 40.044 39.832 22.079 0 40.042-17.868 40.042-39.832 0-21.963-17.963-39.831-40.042-39.831-22.08 0-40.044 17.868-40.044 39.831zM435.982 162.186H345.78c-17.211 0-31.214 13.929-31.214 31.051v40.028h152.279V192.88c.001-16.925-13.845-30.694-30.863-30.694zm-36.31 57.862h-17.937v-17.85h17.937v17.85zm0-26.79h-17.937V175.41h17.937v17.848zM55.511 152.232l44.902 35.752.002.001c.076.062.158.115.237.169l.109.077a4.524 4.524 0 0 0 .405.236c.094.049.188.096.285.138.046.02.092.038.139.057.065.026.129.056.195.079l.05.018c.17.057.344.104.52.141.035.007.071.011.105.017l.009.002a4.67 4.67 0 0 0 .846.085l.013.001h.007l.013-.001c.221-.001.439-.022.657-.054.063-.009.125-.02.188-.031l.01-.002c.035-.006.07-.01.105-.017.175-.038.349-.083.519-.141.018-.005.034-.012.051-.018.065-.022.13-.053.195-.079.046-.019.093-.037.139-.057.096-.042.19-.089.284-.137.048-.026.095-.05.142-.077.09-.05.177-.103.264-.16.038-.024.073-.051.11-.077.08-.055.16-.108.237-.169l.001-.001 44.902-35.752a4.685 4.685 0 1 0-5.836-7.33L108.017 174.6V81.744H264.98a4.686 4.686 0 0 0 0-9.372H103.331a4.687 4.687 0 0 0-4.686 4.686V174.6l-37.298-29.698a4.685 4.685 0 1 0-5.836 7.33zM456.485 359.416l-44.903-35.75c-.046-.038-.1-.061-.147-.096a5.113 5.113 0 0 0-.343-.229c-.086-.052-.167-.109-.255-.155-.065-.035-.134-.061-.201-.092a4.797 4.797 0 0 0-.355-.145c-.095-.036-.188-.076-.285-.105-.077-.022-.153-.036-.229-.055a4.226 4.226 0 0 0-.353-.068c-.103-.017-.203-.039-.307-.048-.088-.008-.176-.007-.264-.009-.061-.003-.117-.019-.179-.019-.057 0-.109.015-.164.017-.1.003-.198.003-.298.013-.093.009-.183.03-.272.045-.12.02-.239.038-.355.065-.085.021-.17.038-.256.063-.089.026-.174.065-.262.098a4.892 4.892 0 0 0-.359.145c-.07.033-.143.061-.211.098-.085.045-.163.102-.245.15a4.54 4.54 0 0 0-.351.233c-.047.035-.1.057-.145.094l-.084.065c0 .001 0 .002-.002.002l-44.813 35.683a4.685 4.685 0 0 0 2.921 8.351 4.664 4.664 0 0 0 2.916-1.02l37.294-29.696v92.848H247.02a4.685 4.685 0 0 0 0 9.371h161.645a4.685 4.685 0 0 0 4.686-4.685v-97.533l37.299 29.696a4.664 4.664 0 0 0 2.916 1.02 4.674 4.674 0 0 0 3.669-1.767 4.688 4.688 0 0 0-.75-6.585z" fill="#3e5fe0" class="fill-000000"></path></svg>