<svg xmlns="http://www.w3.org/2000/svg" width="53" height="53" fill="none"><path d="M46.493 44.431H7.508c-1.056 0-1.886-.91-1.886-2.07V14.743c0-1.16.83-2.07 1.886-2.07h38.949c1.055 0 1.885.91 1.885 2.07V42.36c.038 1.118-.83 2.07-1.848 2.07Z" fill="#D6AB7F"/><path d="M46.494 12.673H7.507c-1.056 0-1.885.91-1.885 2.07v3.395c.188.042.414.042.64.042h41.476c.226 0 .415-.042.641-.042v-3.395c0-1.16-.867-2.07-1.885-2.07Z" fill="#BF9378"/><path d="M32.656 27.993H21.344c-1.056 0-1.885-.911-1.885-2.07v-1.367c0-1.16.83-2.07 1.885-2.07h11.312c1.055 0 1.885.91 1.885 2.07v1.367c0 1.159-.83 2.07-1.885 2.07Z" fill="#fff"/><path d="M32.656 28.407H21.344c-1.244 0-2.262-1.118-2.262-2.484v-1.367c0-1.366 1.018-2.484 2.262-2.484h11.312c1.244 0 2.262 1.118 2.262 2.484v1.367c0 1.366-1.018 2.484-2.262 2.484ZM21.344 22.9c-.83 0-1.508.745-1.508 1.656v1.367c0 .91.679 1.656 1.508 1.656h11.312c.83 0 1.508-.745 1.508-1.656v-1.367c0-.91-.679-1.656-1.508-1.656H21.344Z" fill="#62355C"/><path d="M46.494 44.845H7.507c-1.245 0-2.263-1.118-2.263-2.484V14.743c0-1.367 1.018-2.485 2.263-2.485h38.949c1.244 0 2.262 1.119 2.262 2.485V42.36c.038 1.366-.98 2.484-2.224 2.484ZM7.507 13.087c-.83 0-1.509.745-1.509 1.656V42.36c0 .91.68 1.656 1.509 1.656h38.949c.83 0 1.508-.745 1.508-1.656V14.743c0-.911-.679-1.656-1.508-1.656H7.506Z" fill="#62355C"/><path d="M47.738 15.695H6.262c-1.055 0-1.885-.91-1.885-2.07v-4.14c0-1.16.83-2.07 1.885-2.07h41.476c1.056 0 1.885.91 1.885 2.07v4.14c0 1.16-.83 2.07-1.885 2.07Z" fill="#D6AB7F"/><path d="M47.738 16.11H6.262C5.018 16.11 4 14.99 4 13.624v-4.14C4 8.117 5.018 7 6.262 7h41.476C48.982 7 50 8.118 50 9.484v4.141c0 1.366-1.018 2.484-2.262 2.484ZM6.262 7.827c-.83 0-1.508.745-1.508 1.656v4.141c0 .91.679 1.656 1.508 1.656h41.476c.83 0 1.508-.745 1.508-1.656v-4.14c0-.912-.679-1.657-1.508-1.657H6.262Z" fill="#62355C"/></svg>