<svg version="1.1" id="Layer_1" xmlns="http://www.w3.org/2000/svg" x="0" y="0" width="70" height="70" xml:space="preserve"><path fill="none" d="M0 70h70V0H0z"/><path fill="#CC5D5D" d="M16.207 6.604h37.586a4.32 4.32 0 0 1 4.32 4.32v49.473a4.32 4.32 0 0 1-4.32 4.32H16.207a4.32 4.32 0 0 1-4.32-4.32V10.924a4.32 4.32 0 0 1 4.32-4.32z"/><path fill="#FF7575" d="M16.088 7.925h37.825a2.88 2.88 0 0 1 2.88 2.88v49.712a2.88 2.88 0 0 1-2.88 2.879H16.088a2.88 2.88 0 0 1-2.88-2.879V10.805a2.88 2.88 0 0 1 2.88-2.88z"/><path fill="#CC5D5D" d="M17.289 10.566h35.422a1.44 1.44 0 0 1 1.439 1.44v42.806l-5.943 5.943H17.289c-.795 0-1.44-.646-1.44-1.44V12.006c0-.795.645-1.44 1.44-1.44z"/><path fill="#FFF" d="M17.17 11.887h35.66V54.15l-5.283 5.284H17.17z"/><path fill="#CC5D5D" d="m32.058 36.877 1.257 1.426 1.145-1.516 10.446-13.813-2.476-1.842-10.446 13.813 2.403-.089-6.964-7.894-2.329 2.095z"/><path fill="#E6AEAE" d="M21.132 47.547h21.132v1.321H21.132zm0 3.962h15.849v1.321H21.132z"/><path fill="#8A8A8A" d="M31.698 6.604a3.962 3.962 0 0 1 7.925 0h2.641a2.643 2.643 0 0 1 2.643 2.641 2.643 2.643 0 0 1-2.643 2.642H29.057a2.642 2.642 0 0 1 0-5.283h2.641z"/><path opacity=".5" fill="#FFF" d="M33.019 7.924v-1.32a2.642 2.642 0 1 1 5.283 0v1.32h3.962a1.321 1.321 0 0 1 0 2.642H29.057a1.321 1.321 0 0 1 0-2.642h3.962z"/><circle fill="#FFF" cx="35.66" cy="6.604" r="1.321"/><path fill="#CC5D5D" d="M46.227 52.83v7.925l7.923-7.925z"/><path fill="#FFF" d="M47.547 54.15v5.284l5.283-5.284z"/></svg>