<?xml version="1.0" ?><svg height="32" id="svg5" version="1.1" viewBox="0 0 32 32" width="32" xmlns="http://www.w3.org/2000/svg" xmlns:svg="http://www.w3.org/2000/svg"><defs id="defs2"/><g id="layer1" transform="translate(-60,-436)"><path d="m 71.886719,446.01367 a 1,1 0 0 0 -1,1 1,1 0 0 0 1,1 H 78 v 13 h -6.173828 c -0.415693,-1.16039 -1.530816,-2 -2.826172,-2 -1.295356,0 -2.410479,0.83961 -2.826172,2 H 65 v -11.01758 a 1,1 0 0 0 -1,-1 1,1 0 0 0 -1,1 v 12.01758 a 1.0001,1.0001 0 0 0 1,1 h 2.173828 c 0.415693,1.16039 1.530816,2 2.826172,2 1.295356,0 2.410479,-0.83961 2.826172,-2 H 79 81.173828 c 0.415693,1.16039 1.530816,2 2.826172,2 1.295356,0 2.410479,-0.83961 2.826172,-2 H 90 a 1.0001,1.0001 0 0 0 1,-1 v -7 a 1.0001,1.0001 0 0 0 -0.21875,-0.625 l -4,-5 A 1.0001,1.0001 0 0 0 86,449.01367 h -6 v -2 a 1.0001,1.0001 0 0 0 -1,-1 z m 8.113281,5 h 2 v 5 a 1.0001,1.0001 0 0 0 1,1 h 6 v 4 h -2.173828 c -0.415693,-1.16039 -1.530816,-2 -2.826172,-2 -1.295356,0 -2.410479,0.83961 -2.826172,2 H 80 Z m 4,0 h 1.519531 l 3.199219,4 H 84 Z m -15,10 c 0.564128,0 1,0.43587 1,1 0,0.56413 -0.435872,1 -1,1 -0.564128,0 -1,-0.43587 -1,-1 0,-0.56413 0.435872,-1 1,-1 z m 15,0 c 0.564128,0 1,0.43587 1,1 0,0.56413 -0.435872,1 -1,1 -0.564128,0 -1,-0.43587 -1,-1 0,-0.56413 0.435872,-1 1,-1 z" id="rect25994" style="color:#000000;fill:#002cba;fill-opacity:1;fill-rule:evenodd;stroke-linecap:round;stroke-linejoin:round;stroke-miterlimit:4.1;-inkscape-stroke:none"/><path d="m 73,450.01367 a 1,1 0 0 0 -1,1 1,1 0 0 0 1,1 h 3 a 1,1 0 0 0 1,-1 1,1 0 0 0 -1,-1 z" id="path28918" style="color:#000000;fill:#00c89f;fill-opacity:1;fill-rule:evenodd;stroke-linecap:round;stroke-linejoin:round;stroke-miterlimit:4.1;-inkscape-stroke:none"/><path d="m 70,453.01367 a 1,1 0 0 0 -1,1 1,1 0 0 0 1,1 h 6 a 1,1 0 0 0 1,-1 1,1 0 0 0 -1,-1 z" id="path28920" style="color:#000000;fill:#00c89f;fill-opacity:1;fill-rule:evenodd;stroke-linecap:round;stroke-linejoin:round;stroke-miterlimit:4.1;-inkscape-stroke:none"/><path d="m 68,456.01367 a 1,1 0 0 0 -1,1 1,1 0 0 0 1,1 h 8 a 1,1 0 0 0 1,-1 1,1 0 0 0 -1,-1 z" id="path28922" style="color:#000000;fill:#00c89f;fill-opacity:1;fill-rule:evenodd;stroke-linecap:round;stroke-linejoin:round;stroke-miterlimit:4.1;-inkscape-stroke:none"/><path d="m 67,440.01367 c -3.30186,0 -6,2.69814 -6,6 0,3.30186 2.69814,6 6,6 3.30186,0 6,-2.69814 6,-6 0,-3.30186 -2.69814,-6 -6,-6 z m 0,2 c 2.220981,0 4,1.77902 4,4 0,2.22098 -1.779019,4 -4,4 -2.220981,0 -4,-1.77902 -4,-4 0,-2.22098 1.779019,-4 4,-4 z" id="circle28924" style="color:#000000;fill:#00c89f;fill-opacity:1;fill-rule:evenodd;stroke-linecap:round;stroke-linejoin:round;stroke-miterlimit:4.1;-inkscape-stroke:none"/><path d="M 68.292969,444.30664 66.5,446.09961 65.707031,445.30664 a 1,1 0 0 0 -1.414062,0 1,1 0 0 0 0,1.41406 l 1.5,1.5 a 1.0001,1.0001 0 0 0 1.414062,0 l 2.5,-2.5 a 1,1 0 0 0 0,-1.41406 1,1 0 0 0 -1.414062,0 z" id="path28926" style="color:#000000;fill:#00c89f;fill-opacity:1;fill-rule:evenodd;stroke-linecap:round;stroke-linejoin:round;stroke-miterlimit:4.1;-inkscape-stroke:none"/></g></svg>