<svg version="1.1" id="Layer_1" xmlns="http://www.w3.org/2000/svg" x="0" y="0" width="70" height="70" xml:space="preserve"><path fill="none" d="M0 70h70V0H0z"/><path fill="#68B638" d="m8.838 22.072 44.189-11.84a2.879 2.879 0 0 1 3.527 2.036l8.423 31.434a2.88 2.88 0 0 1-2.036 3.527l-44.19 11.84a2.88 2.88 0 0 1-3.527-2.035L6.801 25.599a2.88 2.88 0 0 1 2.037-3.527z"/><path opacity=".9" fill="#88DA49" d="m9.064 23.378 44.421-11.903a1.44 1.44 0 0 1 1.764 1.019l8.484 31.663a1.44 1.44 0 0 1-1.019 1.764l-44.42 11.901a1.44 1.44 0 0 1-1.764-1.018L8.046 25.142a1.44 1.44 0 0 1 1.018-1.764z"/><path fill="#68B638" d="M12.983 27.797 52.3 17.262a1.44 1.44 0 0 1 1.764 1.018l6.434 24.009a1.44 1.44 0 0 1-1.018 1.764L20.162 54.588a1.44 1.44 0 0 1-1.764-1.018l-6.433-24.009a1.44 1.44 0 0 1 1.018-1.764z"/><path transform="rotate(165.001 36.232 35.925)" fill="#FFF" d="M15.76 23.378h40.943v25.094H15.76z"/><path transform="rotate(164.994 24.066 36.452)" opacity=".6" fill="#AED894" d="M18.123 35.791H30.01v1.321H18.123z"/><path transform="rotate(164.994 24.954 32.112)" opacity=".6" fill="#AED894" d="M17.03 31.45h15.849v1.321H17.03z"/><path opacity=".9" fill="#77BE4C" d="M22.216 47.666c.625-3.164 1.039-4.756 1.214-4.97a.536.536 0 0 1-.729.052c-.079-.061-.077-.057-.066-.025.066.189.11.384.266 1.135.07.338.117.555.171.783.453 1.922 1.016 2.905 2.257 2.572.272-.072.375-.212.462-.41.025-.059.044-.118.062-.188.023-.091.046-.205.072-.355.024-.141.122-.771.146-.916.024-.145.046-.271.068-.389.068-.352.153-.631.114-.594-.267.25-.655.152-.793-.047.021.031.078.178.143.421.872 3.255 4.279 2.476 7.526-1.46a.661.661 0 0 0-1.019-.84c-2.692 3.262-4.756 3.734-5.231 1.958-.102-.38-.204-.646-.334-.833-.279-.4-.801-.533-1.196-.162-.26.246-.373.613-.506 1.309-.024.129-.049.266-.074.42-.026.156-.124.781-.146.908a4.649 4.649 0 0 1-.049.252c.061-.238.069-.258.414-.35-.086.023-.361-.457-.63-1.6a29.28 29.28 0 0 1-.163-.75c-.173-.835-.218-1.029-.312-1.301-.091-.26-.19-.443-.376-.586-.379-.292-.827-.172-1.097.157-.391.476-.789 2.005-1.489 5.551a.66.66 0 0 0 1.295.258z"/><path fill="#68B638" d="M30.546 12.153a2.642 2.642 0 0 1 3.235 1.868l.684 2.551a2.642 2.642 0 1 1-5.103 1.367l-.684-2.551a2.642 2.642 0 0 1 1.868-3.235z"/><path opacity=".9" fill="#77BE4C" d="M45.162 33.532a4.29 4.29 0 0 0 3.035-5.257 4.29 4.29 0 0 0-5.257-3.035c-2.291.614-3.649 2.967-3.035 5.257s2.966 3.649 5.257 3.035zm.556 2.073c-2.768.742-7.921 3.611-7.182 6.368l.556 2.073 16.585-4.444-.556-2.073c-.738-2.757-6.636-2.665-9.403-1.924z"/><path fill="#F0F7EB" d="M30.888 13.429a1.32 1.32 0 0 1 1.618.934l.684 2.551a1.32 1.32 0 1 1-2.552.684l-.684-2.551a1.322 1.322 0 0 1 .934-1.618z"/><path fill="#68B638" d="m19.047 11.551 44.19 11.841a2.88 2.88 0 0 1 2.036 3.527l-8.422 31.433a2.88 2.88 0 0 1-3.527 2.036l-44.19-11.84a2.88 2.88 0 0 1-2.037-3.527l8.423-31.434a2.88 2.88 0 0 1 3.527-2.036z"/><path opacity=".95" fill="#FFF" d="m18.589 12.796 44.42 11.902a1.44 1.44 0 0 1 1.019 1.764l-8.483 31.663a1.44 1.44 0 0 1-1.764 1.019L9.36 47.241a1.441 1.441 0 0 1-1.019-1.764l8.484-31.663a1.44 1.44 0 0 1 1.764-1.018z"/><path fill="#68B638" d="m19.774 18.583 39.318 10.536a1.44 1.44 0 0 1 1.018 1.764l-6.433 24.009a1.44 1.44 0 0 1-1.764 1.018L12.595 45.373a1.44 1.44 0 0 1-1.018-1.764l6.433-24.008a1.44 1.44 0 0 1 1.764-1.018z"/><path transform="rotate(-165.001 35.844 37.246)" fill="#8BDE4B" d="M15.372 24.699h40.943v25.094H15.372z"/><path transform="rotate(-165.001 23.678 36.722)" opacity=".6" fill="#FFF" d="M17.735 36.061h11.887v1.321H17.735z"/><path transform="rotate(-165.001 26.617 33.407)" opacity=".6" fill="#FFF" d="M18.693 32.746h15.849v1.321H18.693z"/><path fill="#68B638" d="M42.805 13.815a2.64 2.64 0 0 1 1.868 3.235l-.684 2.551a2.64 2.64 0 1 1-5.102-1.367l.684-2.551a2.64 2.64 0 0 1 3.234-1.868z"/><path opacity=".9" fill="#FFF" d="M44.773 39.639a4.292 4.292 0 1 0 2.224-8.292 4.292 4.292 0 0 0-2.224 8.292zm-.554 2.073c-2.768-.741-8.665-.833-9.404 1.925l-.556 2.072 16.584 4.444.557-2.073c.739-2.758-4.414-5.627-7.181-6.368z"/><path fill="#F0F7EB" d="M42.464 15.091c.704.188 1.123.913.935 1.618l-.684 2.551a1.322 1.322 0 0 1-2.553-.684l.684-2.551a1.321 1.321 0 0 1 1.618-.934z"/></svg>