<?xml version="1.0" encoding="UTF-8"?>
<!DOCTYPE svg PUBLIC "-//W3C//DTD SVG 1.1//EN" "http://www.w3.org/Graphics/SVG/1.1/DTD/svg11.dtd">
<!-- Creator: CorelDRAW X7 -->
<svg xmlns="http://www.w3.org/2000/svg" xml:space="preserve" width="30mm" height="30mm" version="1.1" style="shape-rendering:geometricPrecision; text-rendering:geometricPrecision; image-rendering:optimizeQuality; fill-rule:evenodd; clip-rule:evenodd"
viewBox="0 0 3000 3000"
 xmlns:xlink="http://www.w3.org/1999/xlink">
 <defs>
  <style type="text/css">
   <![CDATA[
    .fil0 {fill:#ED1B23}
   ]]>
  </style>
 </defs>
 <g id="Слой_x0020_1">
  <metadata id="CorelCorpID_0Corel-Layer"/>
  <path class="fil0" d="M1397 408l1603 0 0 256 -1603 0 0 -256zm-1256 -308l947 0c38,0 74,16 99,41 26,26 41,61 41,100l0 931c0,39 -15,74 -41,100 -25,25 -61,41 -99,41l-947 0c-39,0 -74,-16 -100,-41 -25,-26 -41,-61 -41,-100l0 -931c0,-39 16,-74 41,-100l1 0 0 0c25,-25 60,-41 99,-41zm937 150l-928 0 0 913 928 0 0 -913zm-1003 1439l1078 0c42,0 76,34 76,75l0 1061c0,41 -34,75 -76,75l-1078 0c-41,0 -75,-34 -75,-75l0 -1061c0,-41 34,-75 75,-75zm213 575l104 -86 185 224 254 -354 110 78 -354 496 -299 -358zm1109 37l1603 0 0 255 -1603 0 0 -255zm0 -947l1603 0 0 256 -1603 0 0 -256z"/>
 </g>
</svg>
