<?xml version="1.0" encoding="UTF-8"?>
<!DOCTYPE svg PUBLIC "-//W3C//DTD SVG 1.1//EN" "http://www.w3.org/Graphics/SVG/1.1/DTD/svg11.dtd">
<!-- Creator: CorelDRAW X7 -->
<svg xmlns="http://www.w3.org/2000/svg" xml:space="preserve" width="30mm" height="30mm" version="1.1" style="shape-rendering:geometricPrecision; text-rendering:geometricPrecision; image-rendering:optimizeQuality; fill-rule:evenodd; clip-rule:evenodd"
viewBox="0 0 3000 3000"
 xmlns:xlink="http://www.w3.org/1999/xlink">
 <defs>
  <style type="text/css">
   <![CDATA[
    .fil0 {fill:black}
   ]]>
  </style>
 </defs>
 <g id="Слой_x0020_1">
  <metadata id="CorelCorpID_0Corel-Layer"/>
  <path class="fil0" d="M1098 431l804 0 -402 489 -402 -489zm1198 2569l-1592 0 -101 0 0 -101 0 -786 0 -50 40 -30 692 -533 -692 -533 -40 -30 0 -50 0 -786 0 -101 101 0 1592 0 101 0 0 101 0 786 0 50 -40 30 -692 533 692 533 40 30 0 50 0 786 0 101 -101 0zm-101 -2798l-1390 0 0 636 695 535 695 -535 0 -636zm-1390 2596l1390 0 0 -636 -695 -535 -695 535 0 636z"/>
 </g>
</svg>
