<svg viewBox="0 0 512 512" xml:space="preserve" xmlns="http://www.w3.org/2000/svg" enable-background="new 0 0 512 512"><path d="M240.1 461.5H139v-411h101.1v411zm-88-13.1H227V63.6h-74.9v384.8z" fill="#996262" class="fill-232323"></path><path d="M163 74.5h53v363h-53z" fill="#2e4356" class="fill-2e4356"></path><path d="M107.1 461.5H6V153.4h101.1v308.1zm-88-13.1H94V166.5H19.1v281.9z" fill="#996262" class="fill-232323"></path><path d="M30.1 177.4h53v260.1h-53z" fill="#cce134" class="fill-cce134"></path><path d="M373 461.5H271.9V232.9H373v228.6zm-88-13.1h74.9V246H285v202.4z" fill="#996262" class="fill-232323"></path><path d="M296 257h53v180.5h-53z" fill="#f4908c" class="fill-f4908c"></path><path d="M506 461.5H404.9V114.8H506v346.7zm-88-13.1h74.9V127.9H418v320.5z" fill="#996262" class="fill-232323"></path><path d="M428.9 138.9h53v298.6h-53z" fill="#fbd502" class="fill-fbd502"></path></svg>